<?xml version="1.0" standalone="no"?>
<!DOCTYPE svg PUBLIC "-//W3C//DTD SVG 20010904//EN"
 "http://www.w3.org/TR/2001/REC-SVG-20010904/DTD/svg10.dtd">
<svg version="1.0" xmlns="http://www.w3.org/2000/svg"
 width="1200.000000pt" height="1200.000000pt" viewBox="0 0 1200.000000 1200.000000"
 preserveAspectRatio="xMidYMid meet">
<metadata>
Created by potrace 1.11, written by Peter Selinger 2001-2013
</metadata>
<g transform="translate(0.000000,1200.000000) scale(0.100000,-0.100000)"
fill="#000000" stroke="none">
<path d="M2480 9370 c9 -6 9 -9 -1 -13 -11 -5 -10 -9 3 -20 10 -8 15 -17 11
-20 -3 -4 -1 -7 5 -7 7 0 12 -5 12 -11 0 -5 -6 -7 -12 -3 -7 4 -3 -4 10 -18
12 -13 22 -34 22 -46 0 -12 5 -22 12 -22 6 0 8 -3 5 -7 -4 -3 -1 -13 6 -21 10
-13 9 -15 -3 -8 -13 7 -13 6 0 -6 8 -7 16 -22 18 -33 4 -25 24 -68 37 -77 6
-5 4 -8 -4 -8 -11 0 -10 -4 5 -16 10 -8 12 -12 4 -8 -12 7 -13 5 -3 -8 7 -8
10 -18 6 -21 -3 -4 -1 -7 6 -7 8 0 10 -7 6 -20 -3 -11 -2 -20 3 -20 6 0 13 -7
16 -16 6 -15 4 -15 -11 -3 -17 13 -17 13 0 -7 9 -11 14 -24 10 -27 -3 -4 -1
-7 6 -7 7 0 9 -4 6 -10 -3 -5 0 -10 7 -10 9 0 9 -3 -2 -10 -13 -8 -13 -10 2
-10 11 0 15 -5 12 -15 -4 -9 0 -15 7 -15 11 0 11 -2 -1 -10 -13 -8 -13 -10 1
-15 8 -3 14 -17 13 -33 0 -14 5 -32 11 -38 6 -7 11 -23 10 -36 -1 -12 2 -25 6
-28 5 -4 10 -23 11 -43 2 -20 7 -37 11 -37 5 0 5 -4 2 -10 -3 -5 -1 -19 6 -31
7 -15 8 -19 0 -15 -7 5 -9 1 -5 -8 3 -9 9 -16 13 -16 4 0 7 -16 6 -35 0 -19 3
-35 7 -35 4 0 4 -7 1 -17 -5 -12 -3 -14 8 -8 11 7 11 5 -1 -10 -9 -11 -10 -16
-2 -11 6 4 12 2 12 -3 0 -6 -5 -11 -12 -11 -6 0 -4 -8 6 -19 11 -12 14 -21 7
-26 -8 -4 -8 -12 -1 -26 6 -10 7 -19 3 -19 -4 0 -1 -5 7 -10 8 -5 10 -10 5
-10 -6 0 -10 -13 -10 -29 -1 -24 2 -28 16 -21 9 5 20 6 24 2 5 -4 5 -1 1 6 -4
7 -2 19 4 27 7 8 9 15 4 15 -4 0 1 7 12 16 10 8 12 12 4 8 -13 -7 -13 -5 -1 9
7 9 10 17 5 17 -4 0 0 6 11 13 10 8 15 19 12 24 -4 6 -1 13 7 16 9 4 13 14 9
29 -3 16 -2 19 5 10 7 -11 11 -8 16 13 4 14 4 30 1 36 -4 5 -1 8 7 7 8 -2 12
4 10 16 -2 11 1 15 7 11 10 -6 15 10 14 42 -1 7 4 10 10 6 6 -4 8 0 4 11 -4
10 -3 15 3 11 6 -3 10 1 10 10 0 9 4 14 9 10 6 -3 8 4 6 15 -3 13 1 20 12 20
13 0 13 3 2 18 -7 9 -9 14 -5 10 5 -4 15 -3 23 3 9 9 13 8 13 0 0 -6 5 -11 11
-11 15 0 69 -56 69 -72 0 -6 3 -9 6 -6 3 3 32 -20 64 -52 32 -33 61 -56 65
-52 4 4 6 2 5 -3 -4 -20 0 -36 8 -31 9 5 33 -18 65 -64 9 -13 17 -21 17 -16 0
5 31 -24 69 -63 37 -39 71 -67 75 -63 4 4 7 2 6 -3 -4 -20 0 -36 9 -31 5 3 17
-6 27 -19 10 -14 26 -25 34 -25 11 0 12 -2 2 -8 -9 -6 -5 -12 13 -20 14 -7 23
-17 20 -22 -6 -10 9 -15 30 -10 6 1 7 -1 3 -5 -4 -4 19 -33 52 -65 32 -32 55
-61 52 -64 -3 -3 0 -6 6 -6 17 0 52 -32 52 -47 0 -7 4 -13 10 -13 5 0 25 -15
44 -34 19 -19 37 -32 41 -28 4 4 6 3 5 -3 -4 -19 0 -35 9 -33 12 4 80 -69 72
-77 -3 -4 -1 -5 5 -3 6 1 40 -27 76 -64 36 -37 69 -64 73 -60 4 4 6 3 5 -3 -5
-21 0 -36 10 -30 5 3 15 -5 22 -19 6 -14 16 -26 22 -26 14 0 46 -36 46 -52 0
-6 3 -9 6 -6 7 8 74 -59 74 -74 0 -6 3 -9 6 -5 3 3 13 0 21 -6 19 -16 1494
-1491 1511 -1512 7 -8 17 -13 21 -11 4 3 7 -5 7 -17 -1 -25 -34 -67 -53 -67
-7 0 -12 -3 -11 -7 4 -11 -169 -183 -176 -175 -3 3 -6 -1 -6 -8 0 -14 -37 -50
-52 -50 -5 0 -7 -4 -4 -9 6 -9 -61 -71 -77 -71 -6 0 -8 -2 -5 -6 8 -7 -56 -74
-71 -74 -6 0 -10 -4 -8 -9 2 -11 -62 -71 -76 -71 -6 0 -8 -3 -4 -6 7 -7 -139
-154 -153 -154 -5 0 -9 -4 -7 -9 2 -10 -62 -71 -75 -71 -5 0 -7 -4 -4 -9 6 -9
-61 -71 -77 -71 -6 0 -8 -3 -5 -6 8 -7 -74 -92 -87 -90 -5 0 -9 -4 -8 -10 1
-7 -12 -19 -30 -28 -18 -8 -29 -16 -24 -16 4 0 -1 -8 -10 -18 -10 -11 -21 -17
-25 -15 -5 2 -8 -3 -8 -12 0 -9 -4 -13 -10 -10 -5 3 -10 1 -10 -4 0 -13 -40
-55 -41 -43 0 4 -4 -1 -8 -11 -4 -10 -9 -17 -12 -15 -7 5 -37 -26 -32 -34 2
-5 -1 -8 -7 -8 -6 0 -8 -5 -5 -10 4 -6 3 -10 -2 -9 -21 4 -33 -2 -33 -17 0 -8
-4 -12 -10 -9 -5 3 -10 0 -10 -8 0 -8 -7 -17 -15 -21 -8 -3 -15 -13 -15 -23 0
-11 -3 -14 -8 -7 -4 6 -13 4 -24 -8 -10 -10 -18 -20 -18 -23 0 -9 -40 -45 -41
-37 0 4 -4 -3 -10 -16 -5 -14 -13 -20 -21 -16 -8 5 -9 2 -5 -10 4 -9 3 -14 -2
-11 -5 3 -17 -5 -25 -17 -9 -12 -16 -18 -17 -13 0 6 -4 2 -8 -8 -4 -10 -10
-18 -15 -17 -13 2 -46 -42 -39 -53 3 -6 1 -7 -5 -3 -7 4 -12 2 -12 -4 0 -6 -4
-8 -10 -5 -5 3 -10 -1 -10 -10 0 -9 -4 -13 -10 -10 -5 3 -10 0 -10 -8 0 -8 -7
-17 -15 -21 -8 -3 -15 -13 -15 -23 0 -11 -3 -14 -8 -7 -4 6 -13 4 -24 -8 -10
-10 -18 -20 -18 -23 0 -9 -40 -45 -41 -37 0 4 -4 -3 -10 -16 -5 -14 -13 -20
-21 -16 -8 5 -9 2 -5 -10 4 -9 3 -15 -2 -12 -12 8 -43 -29 -34 -39 5 -4 3 -6
-2 -2 -10 5 -47 -16 -46 -27 1 -3 -8 -15 -19 -26 -11 -11 -20 -17 -21 -12 0 4
-4 -3 -10 -16 -5 -14 -13 -20 -21 -16 -8 5 -9 2 -5 -9 3 -9 3 -16 -1 -15 -15
3 -42 -15 -36 -24 3 -5 -3 -12 -15 -15 -11 -3 -18 -9 -15 -14 3 -5 0 -9 -6 -9
-6 0 -8 -5 -4 -12 4 -6 3 -8 -3 -5 -6 4 -19 -1 -29 -9 -10 -9 -13 -13 -7 -9 8
4 11 1 7 -9 -3 -9 -9 -15 -12 -14 -14 2 -42 -14 -37 -22 3 -4 -7 -15 -20 -24
-14 -10 -23 -22 -19 -28 4 -6 3 -9 -2 -5 -9 5 -46 -16 -45 -27 1 -3 -8 -15
-19 -26 -11 -11 -20 -17 -21 -12 0 4 -4 -3 -10 -16 -5 -14 -13 -20 -21 -16 -8
5 -9 2 -5 -9 3 -9 3 -16 -1 -15 -14 3 -42 -14 -36 -23 3 -5 -5 -13 -18 -18
-13 -6 -19 -10 -15 -10 4 -1 2 -7 -5 -15 -7 -8 -16 -12 -20 -10 -4 3 -10 -7
-14 -22 -4 -14 -9 -22 -13 -17 -5 8 -41 -20 -41 -32 0 -9 -40 -45 -41 -37 0 4
-4 -1 -8 -11 -4 -10 -10 -18 -15 -17 -13 2 -46 -42 -39 -53 3 -6 1 -7 -5 -3
-7 4 -12 2 -12 -4 0 -6 -4 -8 -10 -5 -5 3 -10 -1 -10 -10 0 -9 -4 -14 -9 -11
-5 4 -11 1 -13 -6 -2 -6 -12 -12 -21 -14 -9 -1 -15 2 -11 7 7 12 -7 11 -26 -1
-9 -5 -19 -5 -27 2 -7 6 -13 6 -13 1 0 -13 -42 -14 -59 0 -11 9 -13 9 -8 0 9
-15 -13 -23 -35 -11 -13 6 -18 5 -18 -4 0 -8 -3 -9 -8 -3 -4 6 -16 10 -27 10
-11 0 -23 -4 -27 -10 -5 -7 -8 -7 -8 0 0 6 -11 11 -25 11 -14 1 -22 -2 -19 -7
3 -5 1 -9 -5 -9 -5 0 -12 4 -16 10 -3 5 -12 7 -20 3 -9 -3 -15 1 -15 8 0 11
-3 11 -10 -1 -8 -12 -10 -12 -10 -1 0 10 -3 11 -13 2 -10 -8 -17 -7 -25 1 -9
9 -12 8 -12 -5 0 -9 -3 -16 -7 -16 -18 3 -34 -2 -30 -8 5 -10 -30 -43 -37 -35
-6 5 -10 -13 -7 -30 0 -5 -3 -7 -7 -5 -4 1 -22 -12 -39 -30 -17 -17 -34 -29
-37 -26 -3 4 -6 0 -6 -9 0 -8 -13 -25 -30 -38 -16 -12 -27 -27 -23 -33 3 -6 1
-7 -5 -3 -6 3 -16 -3 -22 -14 -6 -11 -18 -20 -27 -20 -9 0 -14 -3 -10 -6 3 -3
-9 -20 -26 -37 -18 -17 -31 -35 -29 -40 1 -5 -2 -6 -7 -3 -12 8 -43 -23 -35
-35 3 -5 2 -8 -3 -7 -10 4 -59 -45 -55 -55 1 -5 -2 -6 -8 -2 -5 3 -10 1 -10
-5 0 -6 -4 -8 -10 -5 -9 6 -14 -8 -11 -28 0 -4 -2 -6 -6 -5 -11 4 -99 -85 -95
-95 1 -5 -2 -6 -7 -3 -13 8 -43 -23 -35 -36 4 -6 2 -8 -3 -5 -6 4 -16 0 -23
-8 -7 -8 -9 -15 -4 -16 5 0 -1 -4 -14 -10 -13 -5 -20 -13 -17 -19 3 -5 -3 -10
-14 -10 -12 0 -20 -6 -19 -13 2 -6 -3 -11 -11 -9 -10 2 -12 -5 -8 -25 4 -15 4
-22 1 -15 -3 6 -11 12 -17 12 -15 0 10 -25 26 -25 7 0 18 6 25 15 8 8 11 9 7
3 -4 -8 0 -13 10 -13 9 0 14 4 11 8 -2 4 4 8 14 8 10 0 17 -4 14 -8 -5 -7 44
-1 58 8 4 3 8 -1 8 -8 0 -8 3 -9 8 -3 10 14 32 17 32 4 0 -8 5 -8 15 1 12 10
15 10 15 -1 0 -12 2 -12 9 0 6 9 10 10 16 2 5 -9 10 -9 20 -1 10 8 15 7 19 -2
5 -11 7 -11 12 0 5 10 9 10 22 0 12 -10 14 -10 8 0 -4 6 -2 12 3 12 6 0 11 -6
11 -12 0 -10 2 -10 9 0 4 8 12 14 16 14 4 0 12 -6 16 -14 6 -8 9 -9 9 -1 0 7
17 10 45 10 36 -2 44 1 40 13 -5 12 -4 13 6 3 15 -15 33 -17 24 -3 -3 5 1 10
9 10 9 0 16 7 16 16 0 8 4 13 9 10 5 -3 17 5 27 19 10 13 22 21 28 18 5 -4 7
1 3 10 -4 11 -1 17 8 17 8 0 15 5 15 11 0 5 5 7 12 3 7 -5 9 -2 5 9 -4 11 1
18 14 22 11 4 25 17 31 31 6 13 14 21 18 19 4 -3 16 6 26 20 10 13 22 21 28
18 5 -4 7 1 3 10 -4 11 -1 17 8 17 8 0 15 5 15 11 0 5 5 7 12 3 8 -5 9 -2 5 9
-4 11 -1 17 9 17 8 0 12 5 9 10 -6 9 7 14 21 8 3 -2 12 9 20 25 8 15 21 27 29
27 8 0 15 5 15 11 0 5 -6 7 -12 4 -7 -4 -4 0 6 9 10 8 23 13 29 9 6 -4 8 2 4
16 -4 16 -2 21 8 17 7 -2 21 6 31 19 10 13 22 21 28 18 5 -4 7 0 4 8 -7 18 13
37 31 31 8 -3 11 0 8 5 -3 5 5 17 18 27 14 10 23 22 20 26 -2 4 7 12 20 18 14
7 25 20 25 29 0 15 2 16 10 3 8 -12 10 -12 10 -1 0 7 16 29 36 47 36 35 51 43
38 22 -4 -7 -3 -8 5 -4 7 5 20 -2 33 -16 11 -12 24 -22 29 -21 4 2 5 -5 2 -14
-4 -10 -2 -14 5 -9 6 3 14 1 18 -5 5 -8 3 -9 -5 -5 -8 5 -14 0 -18 -13 -3 -12
-12 -21 -20 -21 -8 0 -12 -3 -10 -7 6 -10 -19 -34 -27 -26 -3 4 -6 -1 -6 -10
0 -9 -7 -17 -16 -17 -8 0 -12 -4 -9 -10 3 -5 -1 -10 -9 -10 -9 0 -15 -6 -13
-12 1 -7 -4 -12 -10 -11 -7 2 -13 -4 -13 -12 0 -8 -7 -15 -17 -15 -9 0 -14 -3
-10 -6 8 -8 -18 -34 -33 -34 -6 0 -9 -4 -5 -9 3 -5 -4 -12 -15 -16 -11 -4 -18
-11 -15 -16 4 -5 -4 -13 -17 -18 -13 -6 -19 -10 -15 -10 4 -1 2 -7 -5 -15 -7
-8 -16 -12 -20 -9 -5 2 -8 -3 -8 -11 0 -9 -7 -16 -16 -16 -8 0 -13 -3 -11 -7
6 -10 -19 -34 -27 -26 -6 6 -10 -13 -7 -30 1 -5 -3 -6 -9 -2 -5 3 -10 1 -10
-5 0 -6 -4 -8 -10 -5 -5 3 -10 -1 -10 -10 0 -9 -4 -13 -10 -10 -5 3 -10 1 -10
-4 0 -15 -37 -51 -44 -43 -3 3 -6 -2 -6 -11 0 -9 -7 -17 -16 -17 -8 0 -13 -3
-11 -7 6 -10 -19 -34 -27 -26 -3 4 -6 0 -6 -7 0 -15 -46 -60 -54 -52 -6 5 -10
-14 -7 -31 1 -5 -3 -6 -9 -2 -5 3 -10 1 -10 -5 0 -6 -4 -8 -10 -5 -5 3 -10 -1
-10 -9 0 -9 -7 -16 -16 -16 -8 0 -13 -3 -11 -7 5 -8 -18 -34 -25 -28 -2 2 -8
-7 -15 -21 -7 -16 -8 -24 -1 -24 6 0 5 -6 -2 -15 -10 -12 -10 -15 1 -15 11 0
11 -2 -1 -10 -13 -9 -13 -10 0 -10 13 0 13 -1 0 -10 -13 -9 -13 -10 0 -10 13
0 13 -1 0 -10 -12 -8 -12 -10 -1 -10 10 0 11 -3 2 -13 -8 -10 -7 -17 2 -26 9
-9 9 -14 -3 -21 -13 -9 -13 -11 -1 -19 12 -8 12 -12 2 -25 -11 -12 -11 -16 -1
-16 10 0 10 -3 1 -14 -9 -10 -9 -16 -1 -21 8 -5 8 -11 -1 -21 -9 -11 -9 -14 0
-14 9 0 9 -5 1 -20 -8 -15 -8 -20 1 -20 8 0 8 -4 -1 -15 -10 -12 -10 -15 1
-15 11 0 11 -2 -1 -10 -13 -9 -13 -10 0 -10 13 0 13 -1 0 -10 -8 -5 -10 -10
-4 -10 6 0 11 -7 11 -15 0 -8 -4 -12 -8 -9 -4 2 -7 -4 -7 -13 0 -10 -3 -27 -7
-37 -6 -14 -5 -17 3 -12 8 4 10 2 6 -7 -3 -8 2 -17 11 -21 9 -3 14 -2 11 3 -3
5 3 11 14 14 10 3 28 20 39 38 12 19 21 30 21 26 0 -5 7 -2 15 7 8 8 15 20 15
27 0 7 2 10 6 7 7 -7 114 97 114 111 0 6 6 10 13 9 6 -2 11 3 9 10 -1 6 3 12
9 12 14 0 89 76 89 91 0 7 2 10 5 7 8 -7 75 58 75 72 0 6 5 8 10 5 6 -3 10 2
10 11 0 10 3 15 6 11 8 -8 94 77 94 92 0 6 6 10 13 9 6 -2 11 3 9 10 -1 6 3
12 9 12 14 0 89 76 89 90 0 6 5 8 10 5 6 -3 10 2 10 11 0 10 3 15 6 11 8 -8
34 18 34 33 0 6 4 9 9 6 5 -3 12 1 15 10 4 10 2 13 -7 8 -9 -6 -9 -5 0 7 10
12 10 18 0 29 -9 10 -9 11 1 6 6 -4 12 -2 12 3 0 6 -6 11 -12 11 -9 0 -8 4 2
10 13 9 13 10 0 10 -13 0 -13 1 0 10 13 9 13 10 0 10 -13 0 -13 1 0 10 13 9
13 10 0 10 -13 0 -13 1 0 10 13 9 13 10 0 10 -13 0 -13 1 0 10 13 9 13 10 0
10 -13 0 -13 1 0 10 13 9 13 10 0 10 -13 0 -13 1 0 10 13 9 13 10 0 10 -13 0
-13 1 0 10 13 9 13 10 0 10 -13 0 -13 1 0 10 13 9 13 10 0 10 -13 0 -13 1 0
10 13 9 13 10 0 10 -13 0 -13 1 0 10 13 9 13 10 0 10 -13 0 -13 1 0 10 13 9
13 10 0 10 -13 0 -13 1 0 10 13 9 13 10 0 10 -13 0 -13 1 0 10 13 9 13 10 0
10 -13 0 -13 1 0 10 13 9 13 10 0 10 -13 0 -13 1 0 10 13 9 13 10 0 10 -13 0
-13 1 0 10 13 9 13 10 0 10 -13 0 -13 1 0 10 13 9 13 10 0 10 -13 0 -13 1 0
10 12 8 12 10 1 10 -10 0 -11 3 -2 14 6 7 10 20 8 27 -2 8 -2 10 1 6 2 -4 12
1 21 12 10 12 21 18 25 14 3 -3 6 1 6 10 0 9 5 17 10 17 6 0 10 7 10 15 0 8 6
14 13 12 6 -1 11 3 10 10 -2 8 4 10 14 6 11 -4 14 -3 9 5 -4 7 -2 12 3 12 6 0
11 7 11 15 0 9 6 12 17 8 9 -4 14 -2 11 3 -7 11 17 35 26 27 3 -4 6 3 6 14 0
14 6 20 17 19 12 0 19 7 21 22 2 12 8 20 13 17 5 -4 9 1 9 10 0 9 5 13 10 10
6 -3 10 -1 10 5 0 6 4 9 9 6 5 -4 15 7 22 23 7 16 17 27 21 25 5 -3 12 5 17
18 6 13 10 17 10 9 1 -11 5 -10 15 4 8 11 12 24 8 29 -3 5 2 7 11 3 10 -4 17
-1 17 6 0 7 9 19 19 27 11 7 18 17 15 22 -3 4 2 8 10 8 9 0 23 11 32 25 9 14
21 22 27 18 6 -4 8 2 5 15 -4 12 -2 20 2 17 13 -8 50 26 43 38 -3 6 -1 7 5 3
6 -3 16 2 21 13 6 11 20 22 31 26 11 3 19 9 19 13 -3 17 2 32 9 29 9 -3 58 46
55 55 -3 7 13 11 20 6 7 -6 37 32 37 46 0 10 6 13 17 9 12 -5 15 -2 10 10 -6
15 3 22 26 18 4 0 7 4 7 9 0 6 24 34 53 63 28 28 51 55 50 59 -2 5 1 7 6 5 4
-1 18 9 30 23 13 14 19 19 15 11 -5 -10 -3 -12 5 -7 7 5 10 14 7 22 -3 8 -2
13 2 11 9 -3 58 46 55 55 -2 5 0 7 5 6 10 -3 132 117 132 130 0 7 8 9 18 5 9
-3 14 -3 10 2 -8 8 15 35 31 35 6 0 7 7 4 17 -4 11 -3 14 5 9 7 -4 15 -1 18 8
3 8 15 18 26 22 11 3 17 8 15 11 -7 6 36 49 45 46 5 -2 8 6 8 17 0 13 5 18 15
14 8 -4 15 -1 15 6 0 15 51 66 62 62 5 -1 7 1 5 6 -3 10 80 92 87 85 3 -4 6 0
6 7 0 7 18 30 41 51 23 21 38 42 35 47 -4 6 3 8 14 5 12 -3 20 -2 18 3 -2 5
16 28 40 52 23 23 42 47 42 53 0 5 5 7 10 4 6 -3 13 1 16 9 3 8 15 18 26 22
15 4 17 8 8 14 -8 5 -3 10 14 14 14 3 25 10 25 14 -3 19 2 33 10 27 6 -3 15 4
21 15 6 11 18 20 26 20 8 0 13 3 11 8 -5 9 30 42 37 35 3 -4 6 1 6 10 0 9 9
21 20 27 11 6 18 15 15 21 -6 9 9 14 30 9 6 -1 7 1 3 5 -8 9 14 35 24 28 4 -2
5 3 2 12 -4 10 -2 15 7 13 8 -2 13 3 12 10 -2 6 6 12 18 12 11 0 17 5 14 10
-3 6 1 10 9 10 9 0 16 9 16 20 0 11 6 19 13 17 6 -1 11 6 11 16 -2 14 1 15 12
6 13 -10 18 -6 15 13 0 4 8 12 19 18 11 6 18 15 15 21 -6 8 8 13 28 10 5 -1 6
3 2 8 -3 6 4 15 15 21 11 6 17 16 14 22 -5 7 -2 8 5 4 8 -5 14 -1 18 12 3 13
10 19 19 15 8 -3 14 -2 13 3 -4 21 2 35 11 29 6 -3 10 -1 10 5 0 7 7 10 15 6
8 -3 14 -2 13 2 -4 14 34 62 45 55 6 -3 7 -1 3 5 -3 6 3 16 14 22 11 6 20 18
20 26 0 8 4 13 9 9 5 -3 16 3 23 13 7 10 18 21 24 25 12 7 74 -46 74 -64 0 -5
4 -8 9 -5 4 3 17 -1 27 -9 18 -15 18 -15 -1 -9 -17 5 -16 3 4 -11 55 -41 2421
-2417 2416 -2425 -4 -6 -1 -10 5 -10 8 0 7 -6 -1 -21 -8 -16 -8 -20 1 -14 9 6
9 2 1 -14 -8 -15 -9 -21 -1 -21 6 0 8 -5 4 -12 -13 -20 -14 -59 -2 -52 6 4 9
1 6 -7 -3 -8 -1 -22 4 -33 7 -13 7 -16 -1 -12 -6 4 -11 3 -11 -3 0 -5 4 -12
10 -16 6 -3 6 -15 0 -30 -6 -16 -5 -25 3 -29 8 -3 8 -5 -2 -5 -11 -1 -11 -4 0
-18 10 -11 10 -14 2 -9 -7 4 -13 3 -13 -1 0 -5 6 -15 13 -22 10 -10 9 -12 -2
-9 -8 2 -14 -8 -16 -24 -2 -16 1 -28 7 -28 6 0 5 -6 -3 -16 -10 -13 -10 -17 2
-25 8 -5 10 -9 5 -9 -6 0 -1 -7 10 -16 10 -8 13 -13 7 -9 -9 4 -11 1 -7 -10 4
-9 13 -14 20 -11 8 3 14 -1 14 -9 0 -8 6 -15 14 -15 8 0 18 -5 22 -12 4 -7 3
-8 -4 -4 -7 4 -12 2 -12 -3 0 -6 6 -11 13 -11 6 -1 23 -14 37 -30 13 -17 30
-30 38 -30 7 0 10 -4 7 -10 -3 -5 -1 -10 5 -10 6 0 8 -5 4 -12 -4 -6 -3 -8 3
-5 6 4 21 -6 34 -22 13 -16 27 -27 31 -25 4 3 8 -1 8 -9 0 -16 46 -58 54 -50
3 4 6 0 6 -7 0 -14 37 -50 52 -50 5 0 7 -4 4 -8 -6 -10 30 -43 38 -35 3 4 6 0
6 -8 0 -16 66 -80 74 -71 3 3 6 -2 6 -11 0 -9 18 -29 40 -43 22 -15 40 -29 40
-31 0 -2 -4 -1 -10 2 -5 3 -10 1 -10 -4 0 -6 5 -11 11 -11 6 0 25 -16 42 -35
22 -25 33 -32 39 -23 5 9 8 7 8 -6 0 -19 76 -99 97 -103 6 -1 14 4 17 13 3 8
2 12 -4 9 -6 -3 -10 -2 -10 4 0 5 5 13 11 17 8 4 7 9 -2 15 -11 7 -11 9 1 9
13 0 13 1 0 10 -13 9 -13 10 0 10 13 0 13 1 0 10 -13 9 -13 10 0 10 13 0 13 1
0 10 -13 9 -13 11 0 20 9 6 11 13 5 18 -12 9 -20 46 -8 39 13 -8 11 37 -1 45
-8 6 -7 10 1 16 8 5 9 13 3 22 -5 8 -5 21 1 32 6 12 6 18 0 18 -7 0 -7 9 -1
25 7 18 6 25 -2 25 -6 0 -9 2 -6 6 3 3 2 21 -2 40 -4 18 -4 34 1 34 5 0 4 11
-1 24 -5 13 -6 27 -3 30 4 3 1 6 -6 6 -7 0 -9 5 -6 10 3 6 0 10 -8 10 -17 0
-49 34 -40 43 3 4 2 7 -4 7 -15 0 -54 36 -46 44 6 6 -13 10 -32 6 -5 -1 -7 1
-3 5 7 8 -83 101 -94 97 -4 -1 -4 6 -1 16 3 9 3 14 -2 10 -8 -8 -45 28 -45 44
0 4 -7 8 -15 8 -8 0 -15 5 -15 11 0 5 -5 7 -12 3 -7 -4 -8 -3 -4 5 4 6 0 14
-8 17 -9 3 -13 10 -10 15 3 5 0 9 -7 9 -13 0 -49 38 -49 52 0 4 -6 7 -12 6 -7
-2 -12 3 -10 10 1 8 -2 11 -8 7 -5 -3 -13 1 -16 9 -3 9 -10 13 -15 10 -5 -3
-6 2 -3 10 4 12 0 16 -16 16 -11 0 -19 4 -16 9 3 5 -7 19 -23 32 -16 13 -27
28 -24 33 4 5 -1 7 -10 3 -9 -3 -16 -3 -15 1 1 4 -19 29 -45 55 -26 26 -47 52
-47 57 0 6 -6 9 -12 8 -7 -2 -12 5 -12 14 1 10 -2 15 -7 12 -5 -3 -9 0 -9 5 0
6 5 11 10 11 6 0 15 11 22 25 6 13 15 22 19 19 5 -3 9 0 9 6 0 6 5 8 10 5 6
-3 10 2 11 12 0 16 1 16 9 -2 5 -11 9 -16 9 -12 1 4 7 2 15 -5 8 -7 12 -16 9
-20 -4 -8 12 -12 30 -9 5 1 6 -3 3 -8 -3 -5 1 -12 10 -15 9 -3 12 -11 8 -18
-4 -7 -4 -10 1 -6 8 8 45 -28 45 -44 0 -4 6 -7 12 -6 7 2 12 -3 10 -10 -1 -8
2 -11 6 -8 5 3 18 -5 28 -19 10 -13 22 -21 27 -18 6 3 7 1 3 -6 -4 -6 0 -14 8
-17 9 -3 13 -10 10 -15 -3 -5 0 -9 5 -9 6 0 38 -27 70 -60 33 -33 64 -60 70
-60 6 0 10 -3 9 -8 -2 -4 27 -37 64 -73 37 -37 64 -70 60 -75 -4 -4 -1 -4 6 0
7 4 15 1 18 -8 3 -9 10 -13 15 -10 5 3 9 2 8 -3 -3 -17 1 -36 7 -30 3 3 36
-26 74 -64 42 -42 70 -64 73 -56 3 7 6 5 6 -6 1 -14 5 -16 20 -7 14 7 21 6 24
-3 3 -6 6 -3 7 8 l1 20 9 -20 c5 -11 9 -15 9 -10 1 7 23 9 60 5 33 -3 57 -2
55 2 -8 13 11 9 24 -4 8 -8 12 -8 12 -1 0 5 12 9 28 7 15 -2 41 -5 59 -6 20
-1 30 -5 26 -12 -4 -6 1 -5 10 3 13 10 17 10 17 1 0 -10 3 -10 15 0 12 10 15
10 15 -1 0 -11 2 -11 10 1 9 13 11 13 20 0 8 -12 10 -12 10 -1 0 10 3 11 13 2
10 -8 17 -7 25 1 9 9 12 9 12 -1 0 -10 3 -11 13 -2 8 6 17 8 20 4 4 -3 7 -1 7
6 0 15 -92 107 -103 103 -5 -1 -7 1 -4 5 6 11 -579 594 -587 585 -4 -3 -4 2 0
13 6 15 4 17 -11 11 -11 -4 -17 -4 -13 -1 9 9 -24 41 -49 47 -11 3 -28 1 -38
-5 -11 -6 -15 -6 -12 0 3 5 -7 10 -23 10 -18 0 -27 -4 -23 -11 3 -6 0 -5 -8 2
-16 15 -33 16 -23 1 5 -8 2 -9 -11 -2 -10 6 -26 8 -36 6 -11 -3 -26 0 -34 7
-13 11 -14 10 -9 -4 5 -14 2 -15 -18 -7 -15 6 -31 5 -42 -1 -11 -6 -16 -6 -13
-1 3 5 -7 10 -23 10 -18 0 -27 -4 -23 -11 3 -6 0 -5 -8 1 -17 17 -32 17 -22 1
4 -7 -6 -5 -21 6 -23 15 -28 15 -23 3 4 -11 0 -13 -14 -10 -11 3 -22 9 -25 14
-3 5 -11 9 -17 9 -7 0 -6 -4 3 -10 8 -5 10 -10 4 -10 -16 0 -35 25 -26 34 4 4
2 6 -4 4 -6 -1 -25 11 -41 29 -17 18 -33 29 -37 25 -4 -3 -4 1 0 11 4 13 1 17
-15 17 -12 0 -20 3 -20 8 3 18 -2 32 -10 30 -10 -3 -51 40 -51 54 0 4 -4 7 -8
6 -9 -3 -112 101 -112 114 0 4 -6 8 -13 8 -7 0 -29 18 -47 39 -19 22 -38 37
-42 35 -4 -3 -5 2 -2 10 4 11 0 16 -15 16 -12 0 -20 3 -20 8 3 17 -1 32 -8 30
-10 -4 -173 161 -173 174 0 5 -4 7 -9 4 -10 -7 -33 18 -26 27 3 4 2 5 -1 3 -7
-5 -124 113 -124 125 0 5 -4 8 -8 7 -5 -2 -27 16 -49 39 -22 23 -44 39 -47 35
-4 -3 -4 1 0 11 4 13 1 17 -15 17 -12 0 -20 3 -20 8 3 18 -2 32 -10 30 -10 -3
-51 40 -51 54 0 4 -4 7 -8 6 -9 -3 -112 101 -112 114 0 4 -4 7 -8 6 -5 -2 -27
16 -49 39 -22 23 -44 39 -47 35 -4 -3 -4 1 0 11 4 13 1 17 -15 17 -12 0 -20 3
-20 8 3 17 -2 32 -9 30 -4 -2 -30 20 -58 49 -28 29 -54 49 -58 45 -4 -3 -4 1
0 11 4 13 1 17 -15 17 -12 0 -20 3 -20 8 3 18 -2 32 -10 30 -10 -3 -51 40 -51
54 0 4 -4 7 -8 6 -10 -4 -112 100 -112 113 0 6 -4 8 -9 5 -10 -7 -33 18 -26
27 3 4 2 5 -1 2 -4 -2 -19 9 -34 25 -15 16 -30 26 -34 22 -4 -3 -4 1 0 11 4
13 1 17 -15 17 -12 0 -20 3 -20 8 3 17 -1 32 -8 30 -5 -2 -49 39 -99 89 -50
51 -95 89 -98 85 -4 -3 -4 1 0 11 6 16 -10 23 -39 18 -5 -1 -6 3 -2 8 3 6 -4
15 -15 21 -11 6 -18 15 -15 21 4 5 2 9 -3 9 -14 0 -118 101 -115 112 2 4 -3 8
-11 8 -8 0 -17 7 -20 16 -3 9 -11 12 -18 8 -7 -4 -10 -4 -6 0 4 5 -10 24 -30
45 -20 20 -36 39 -34 44 1 4 -4 7 -12 7 -8 0 -17 7 -20 16 -3 9 -11 12 -18 8
-7 -4 -10 -4 -6 0 9 11 -23 46 -36 39 -6 -3 -8 -3 -4 1 4 5 -10 24 -30 45 -20
20 -36 39 -34 44 1 4 -5 7 -13 7 -9 0 -20 10 -25 23 -5 12 -9 18 -9 13 -1 -5
-9 1 -20 12 -10 12 -20 19 -23 17 -2 -3 -5 2 -5 10 0 8 5 11 11 8 6 -4 5 1 -3
10 -9 12 -10 17 -2 17 7 0 10 4 6 9 -3 5 4 12 15 16 11 3 20 11 20 17 0 6 3 8
6 5 4 -4 15 3 25 14 9 11 21 20 26 20 4 -1 8 2 8 7 0 11 169 177 177 175 5 -2
7 0 5 5 -1 4 32 41 73 82 41 41 75 78 75 82 0 4 9 14 20 23 11 9 13 14 5 10
-8 -4 -6 0 4 9 10 8 24 13 29 9 6 -4 8 0 4 10 -4 11 -1 17 8 17 8 0 19 9 25
20 6 11 16 17 22 14 6 -4 8 -3 5 3 -7 12 28 44 39 35 4 -4 5 3 2 14 -4 15 -1
21 11 20 9 0 15 5 14 12 -2 6 2 12 7 12 13 0 56 43 53 52 -2 5 3 8 11 8 8 0
17 7 20 16 3 8 11 12 16 9 6 -4 9 -3 8 2 -4 10 45 59 55 55 5 -1 6 2 3 6 -3 5
8 20 24 32 16 12 27 27 24 31 -3 5 1 9 9 9 8 0 18 7 21 16 3 8 11 12 16 9 6
-4 9 -3 8 2 -4 10 44 59 54 56 5 -2 7 1 5 5 -3 10 65 78 75 74 5 -1 7 1 5 6
-1 4 9 18 23 32 14 14 28 24 32 23 5 -2 7 0 5 5 -3 10 46 58 56 54 5 -1 6 2 2
8 -3 5 1 13 9 16 9 3 16 13 16 21 0 8 4 12 9 8 6 -3 15 4 21 15 6 11 15 18 21
15 5 -4 9 -3 8 2 -3 20 2 33 14 30 6 -1 11 4 9 12 -2 9 3 11 14 7 12 -5 15 -2
10 9 -3 9 -2 13 4 10 5 -3 14 4 20 15 6 11 15 18 21 15 5 -4 8 -3 7 2 -2 5 13
24 32 43 19 19 34 38 33 42 -2 4 4 8 12 8 8 0 15 7 15 15 0 9 6 12 18 8 9 -3
14 -3 10 1 -8 10 23 47 34 40 5 -3 7 -2 6 3 -3 10 64 79 74 76 4 -2 7 0 5 5
-3 10 46 58 56 54 5 -1 6 2 2 8 -3 5 1 13 9 16 9 3 16 13 16 21 0 8 4 12 8 9
11 -7 42 30 34 40 -4 4 1 4 10 1 11 -4 19 0 23 13 3 10 13 21 21 24 9 3 12 11
8 17 -4 8 -3 9 4 5 7 -4 141 122 334 316 178 178 327 322 333 320 5 -2 7 -1 3
3 -7 8 113 131 124 128 5 -2 7 0 6 5 -2 4 56 66 129 139 72 72 129 135 125
139 -4 5 0 3 8 -3 8 -6 23 -9 33 -7 11 1 16 0 13 -3 -3 -4 0 -13 7 -21 10 -13
9 -14 -2 -7 -9 5 -5 -5 7 -22 12 -17 22 -36 22 -42 0 -6 4 -11 8 -11 5 0 9 -6
10 -12 2 -25 27 -88 34 -88 5 0 8 -7 8 -15 0 -8 5 -15 10 -15 6 0 10 -11 10
-25 0 -14 5 -25 11 -25 6 0 9 -9 6 -20 -3 -11 -2 -18 3 -15 8 5 25 -24 21 -38
-2 -12 43 -72 57 -75 10 -2 10 2 2 17 -7 14 -7 22 0 26 8 5 7 11 -1 21 -9 11
-9 14 0 14 9 0 9 5 0 21 -6 12 -7 19 -1 15 14 -8 21 28 10 48 -6 10 -5 16 2
16 5 0 10 8 10 18 0 10 6 24 13 31 9 11 9 13 0 7 -15 -9 -18 10 -3 19 6 4 8
10 5 15 -3 5 -1 12 5 15 8 5 7 11 -1 21 -9 11 -9 14 1 14 10 0 10 3 0 15 -11
13 -10 14 3 9 12 -4 15 -1 12 15 -2 11 0 23 5 26 4 3 6 14 3 25 -3 11 0 20 6
20 13 0 10 22 -4 32 -6 5 -3 8 7 8 11 0 16 6 13 20 -2 11 0 22 6 25 5 4 9 20
9 36 0 17 4 28 9 24 6 -3 8 3 6 15 -2 11 1 22 6 25 5 4 7 10 4 15 -3 5 -1 11
5 15 6 4 8 11 5 16 -4 5 -1 9 5 9 6 0 8 5 5 10 -4 6 -1 17 5 25 6 8 9 19 5 25
-3 5 -1 10 5 10 6 0 9 4 5 9 -3 5 2 16 10 25 11 11 12 17 4 22 -9 5 -8 10 2
18 13 10 17 20 24 56 1 8 8 14 14 12 9 -2 9 3 3 15 -8 13 -6 21 6 31 10 7 11
10 4 7 -11 -6 -12 -3 -3 13 6 11 16 23 23 25 10 4 10 6 0 6 -10 1 -10 6 2 22
8 12 12 28 9 37 -4 10 -2 13 5 8 7 -4 13 -2 13 3 3 21 4 26 12 39 5 7 3 12 -5
13 -7 0 -2 5 12 10 18 8 21 12 11 18 -11 7 -10 10 3 18 16 9 16 10 0 24 -13
10 -18 11 -21 2 -2 -7 -11 -9 -19 -6 -8 3 -14 0 -14 -7 0 -6 -4 -8 -10 -5 -5
3 -10 1 -10 -5 0 -7 -7 -9 -16 -6 -8 3 -13 2 -10 -3 3 -5 -8 -11 -25 -15 -19
-3 -28 -10 -23 -17 4 -8 0 -8 -15 0 -17 10 -22 9 -27 -3 -3 -8 -12 -17 -20
-20 -8 -3 -12 -1 -9 4 3 6 -1 7 -9 4 -9 -3 -16 -10 -16 -15 0 -4 -8 -5 -17 -2
-13 5 -15 2 -10 -12 6 -15 5 -16 -7 -6 -9 8 -16 8 -20 2 -4 -6 -13 -8 -21 -4
-8 3 -15 0 -15 -6 0 -6 -7 -8 -15 -5 -8 4 -15 1 -15 -6 0 -6 -4 -8 -10 -5 -5
3 -10 1 -10 -5 0 -6 -4 -8 -10 -5 -5 3 -16 3 -22 -2 -7 -4 -24 -9 -38 -11 -13
-2 -28 -8 -31 -14 -4 -6 -12 -7 -19 -3 -9 5 -11 4 -6 -3 7 -11 -18 -17 -51
-13 -7 1 -13 -3 -13 -9 0 -5 -5 -10 -11 -10 -5 0 -7 6 -4 13 4 6 -1 3 -9 -7
-9 -11 -16 -16 -16 -12 0 5 -8 2 -17 -5 -9 -8 -14 -9 -11 -4 4 6 -2 11 -12 11
-10 0 -16 -5 -14 -11 2 -5 -12 -11 -32 -12 -19 -1 -43 -8 -52 -15 -13 -11 -14
-11 -7 2 7 12 6 13 -6 3 -8 -7 -30 -14 -49 -16 -19 -2 -43 -8 -53 -12 -10 -4
-21 -5 -24 -1 -3 3 -12 -2 -20 -12 -8 -9 -12 -11 -8 -4 7 13 -7 17 -19 5 -7
-8 -16 -9 -72 -12 -14 0 -23 -5 -20 -9 2 -4 -4 -8 -14 -8 -10 0 -17 3 -15 6 2
3 -5 7 -16 7 -11 1 -23 -5 -26 -13 -3 -7 -9 -11 -14 -8 -5 3 -18 7 -28 9 -17
3 -19 0 -12 -18 5 -12 15 -22 23 -22 9 0 23 -6 32 -14 9 -7 27 -13 41 -13 13
0 23 -4 20 -8 -2 -3 11 -13 30 -20 19 -8 35 -17 35 -22 0 -4 5 -8 11 -8 5 0 7
6 4 13 -4 6 -1 5 7 -4 7 -9 19 -14 27 -11 9 3 11 0 7 -7 -5 -8 0 -10 18 -7 15
3 24 1 21 -3 -2 -5 5 -17 18 -27 21 -19 21 -19 7 1 -11 16 -9 15 12 -3 19 -18
27 -20 31 -10 3 8 6 5 6 -7 1 -15 3 -17 10 -6 7 11 11 9 20 -8 7 -12 17 -19
23 -15 10 7 28 -12 28 -32 0 -15 -60 -80 -71 -77 -5 2 -9 -2 -9 -7 0 -14 -147
-160 -154 -153 -3 4 -6 1 -6 -6 0 -17 -146 -162 -154 -154 -3 4 -6 2 -6 -4 0
-16 -62 -83 -71 -77 -5 3 -9 0 -9 -6 0 -15 -166 -180 -181 -180 -7 0 -10 -3
-6 -6 7 -7 -139 -154 -153 -154 -5 0 -9 -4 -7 -9 2 -11 -62 -71 -76 -71 -6 0
-8 -3 -5 -6 8 -7 -85 -103 -94 -97 -5 2 -8 -1 -8 -8 0 -13 -38 -49 -52 -49 -4
0 -7 -4 -5 -8 3 -12 -114 -123 -124 -117 -5 4 -6 -1 -3 -9 3 -9 -2 -17 -15
-21 -12 -3 -19 -10 -16 -15 5 -9 -63 -70 -78 -70 -6 0 -8 -3 -4 -6 7 -7 -139
-154 -154 -154 -5 0 -8 -4 -5 -9 6 -9 -61 -71 -77 -71 -6 0 -8 -3 -5 -6 8 -7
-85 -102 -94 -97 -5 2 -8 -1 -8 -6 0 -6 -27 -38 -60 -71 -33 -33 -65 -60 -71
-60 -5 0 -8 -3 -6 -7 6 -10 -199 -213 -207 -206 -3 4 -6 2 -6 -4 0 -16 -62
-83 -71 -77 -5 3 -9 1 -9 -4 0 -14 -36 -52 -49 -52 -7 0 -10 -3 -8 -7 5 -10
-90 -103 -97 -95 -3 3 -6 1 -6 -5 0 -16 -62 -83 -71 -77 -5 3 -9 0 -9 -5 0
-15 -147 -161 -154 -154 -3 4 -6 1 -6 -6 0 -14 -85 -101 -100 -101 -5 0 -9 -4
-7 -8 3 -11 -141 -152 -155 -152 -6 0 -9 -3 -6 -6 4 -3 -16 -28 -43 -56 -47
-48 -51 -50 -68 -34 -10 9 -21 13 -26 9 -4 -5 -6 -3 -3 2 6 11 -48 66 -56 57
-6 -5 -10 14 -7 31 0 4 -5 7 -13 7 -8 0 -17 7 -20 16 -3 9 -11 12 -18 8 -7 -4
-10 -4 -6 0 4 5 -10 24 -30 45 -20 20 -36 39 -34 44 1 4 -3 7 -9 7 -14 0 -75
61 -72 72 2 4 -3 8 -11 8 -8 0 -17 7 -20 16 -3 9 -11 12 -18 8 -7 -4 -10 -4
-6 0 8 10 -23 47 -34 40 -4 -3 -8 4 -8 16 0 12 -4 19 -9 16 -4 -3 -19 8 -31
24 -12 16 -28 27 -34 23 -6 -3 -8 -3 -4 1 4 5 -10 24 -30 45 -20 20 -36 39
-34 44 1 4 -4 7 -12 7 -8 0 -17 7 -20 16 -3 9 -11 12 -18 8 -7 -4 -10 -4 -6 0
9 11 -23 46 -36 39 -6 -3 -8 -3 -4 1 4 5 -10 24 -30 45 -20 20 -36 39 -34 44
1 4 -3 7 -9 7 -14 0 -75 61 -72 72 2 4 -3 8 -11 8 -8 0 -17 7 -20 16 -3 9 -11
12 -18 8 -7 -4 -10 -4 -6 0 9 11 -23 46 -35 39 -6 -3 -7 -1 -4 4 7 11 -11 31
-26 31 -5 0 -12 4 -15 8 -4 4 0 4 8 0 8 -4 4 2 -10 15 -14 12 -24 26 -23 30 2
5 -1 9 -6 9 -6 0 -30 20 -55 44 -24 24 -47 42 -50 38 -6 -5 -10 13 -7 31 0 4
-5 7 -13 7 -8 0 -17 7 -20 16 -3 8 -11 12 -17 8 -7 -4 -9 -3 -6 3 7 11 -11 31
-26 31 -5 0 -12 4 -15 8 -4 4 0 4 8 -1 8 -4 -2 8 -22 27 -21 19 -35 38 -31 41
6 7 -13 11 -32 7 -5 -1 -7 1 -3 5 10 10 -24 45 -36 38 -6 -3 -8 -3 -4 1 4 5
-10 24 -30 45 -20 20 -36 39 -34 44 1 4 -3 7 -9 7 -14 0 -75 61 -71 72 1 4 -2
8 -7 8 -6 0 -30 20 -55 44 -24 24 -47 42 -50 38 -6 -5 -10 13 -7 31 0 4 -5 7
-13 7 -8 0 -17 7 -20 16 -3 8 -11 12 -17 8 -7 -4 -9 -3 -6 3 7 11 -12 33 -25
30 -3 -1 -10 2 -15 7 -5 5 -2 6 7 1 8 -4 -2 8 -22 27 -21 19 -35 38 -31 41 3
4 0 7 -8 7 -16 0 -55 40 -51 53 1 4 -4 7 -12 7 -8 0 -17 7 -20 16 -3 9 -11 12
-18 8 -7 -4 -10 -4 -6 0 9 11 -23 46 -35 39 -6 -3 -7 -1 -4 4 7 10 -20 40 -32
36 -3 -1 -8 1 -11 4 -3 4 2 3 10 -1 8 -4 4 2 -10 15 -14 12 -24 26 -22 30 1 5
-2 9 -7 9 -6 0 -30 20 -55 44 -24 24 -47 42 -50 38 -6 -5 -10 13 -7 31 0 4 -5
7 -13 7 -8 0 -17 7 -20 16 -3 9 -11 12 -18 8 -7 -4 -10 -4 -6 0 4 5 -10 24
-30 44 -20 21 -36 40 -34 45 1 4 -4 7 -12 7 -8 0 -17 7 -20 16 -3 9 -11 12
-18 8 -7 -4 -10 -4 -6 0 9 11 -23 46 -35 39 -6 -3 -7 -1 -3 5 6 10 -10 26 -26
27 -3 0 -10 4 -15 9 -5 5 -2 6 7 1 8 -4 -2 8 -22 27 -21 19 -35 38 -31 41 3 4
0 7 -8 7 -16 0 -55 40 -51 53 1 4 -4 7 -12 7 -8 0 -17 7 -20 16 -3 9 -11 12
-18 8 -7 -4 -10 -4 -6 0 9 11 -23 46 -35 39 -6 -3 -7 -1 -4 4 7 11 -11 31 -26
31 -5 0 -12 4 -15 8 -4 4 0 4 8 0 8 -4 4 2 -10 15 -14 12 -24 26 -23 30 2 5
-1 9 -6 9 -13 0 -116 102 -114 112 2 4 -3 8 -11 8 -8 0 -17 7 -20 16 -3 9 -11
12 -18 8 -7 -4 -10 -4 -6 0 4 5 -10 24 -30 44 -20 21 -36 40 -34 45 1 4 -4 7
-12 7 -8 0 -17 7 -20 16 -3 9 -11 12 -18 8 -7 -5 -9 -2 -5 9 3 9 1 18 -6 21
-8 3 -8 5 2 5 10 1 11 4 2 15 -10 12 -9 14 6 12 10 -2 26 5 36 16 11 11 29 18
42 16 14 -2 34 7 51 22 15 14 24 20 21 13 -5 -8 -1 -8 18 0 14 7 25 15 25 20
0 4 7 7 15 7 8 0 15 4 15 10 0 5 7 6 17 3 12 -5 14 -3 8 8 -7 11 -6 12 6 2 13
-11 20 -8 38 13 19 21 25 24 32 13 7 -11 9 -10 9 4 0 10 4 16 9 12 5 -3 12 -1
16 4 3 5 14 8 25 6 12 -2 18 -1 16 4 -3 4 4 14 15 21 10 8 19 17 19 21 0 10
-34 5 -42 -6 -5 -6 -8 -5 -8 4 0 9 -8 11 -25 7 -17 -4 -25 -2 -25 6 0 9 -3 8
-10 -2 -7 -11 -10 -11 -10 -2 0 7 -8 12 -17 10 -10 -1 -24 1 -30 5 -8 5 -13 3
-13 -4 0 -9 -4 -9 -15 1 -8 6 -19 9 -25 5 -5 -3 -10 -2 -10 3 0 13 -30 11 -30
-2 0 -6 -5 -3 -11 7 -7 12 -17 16 -30 12 -10 -4 -19 -3 -19 2 0 5 -8 9 -17 10
-48 3 -73 8 -73 16 0 5 -8 3 -17 -4 -11 -10 -14 -10 -9 -1 5 8 -1 12 -18 12
-14 0 -26 6 -26 13 0 8 -4 7 -10 -3 -5 -8 -10 -10 -10 -4 0 6 -7 11 -15 12 -8
1 -22 3 -30 4 -8 1 -15 5 -15 9 0 4 -9 6 -20 4 -13 -3 -18 0 -14 7 5 7 -2 9
-20 4 -18 -4 -25 -3 -21 4 3 5 -1 10 -9 10 -9 0 -16 5 -16 11 0 5 -5 7 -10 4
-6 -4 -7 -11 -3 -18 3 -6 -7 -2 -23 10 -16 11 -39 19 -51 18 -12 -1 -20 2 -18
6 3 4 -2 10 -11 13 -8 3 -12 2 -9 -4 3 -5 -16 3 -41 17 -26 15 -44 21 -40 15
5 -9 1 -10 -17 -3 -14 6 -28 7 -32 3 -3 -3 -3 1 1 11 5 13 1 17 -20 17 -37 0
-40 1 -53 19 -11 14 -12 14 -13 1 0 -10 -7 -7 -20 10 -11 14 -20 19 -20 12 0
-7 -5 -10 -10 -7 -6 4 -8 10 -5 14 2 5 -7 7 -20 5 -14 -1 -25 2 -25 7 0 6 -4
7 -10 4 -5 -3 -10 0 -10 7 0 8 -13 13 -31 14 -17 1 -25 -2 -19 -6z"/>
<path d="M5410 9231 c0 -7 -4 -9 -10 -6 -5 3 -10 0 -10 -7 0 -9 -2 -10 -8 -2
-5 9 -10 8 -19 -2 -9 -9 -9 -15 -2 -19 7 -5 7 -11 -1 -20 -8 -10 -8 -15 1 -20
8 -6 7 -10 -2 -16 -11 -7 -11 -9 -1 -9 7 0 10 -5 7 -11 -11 -17 -13 -59 -3
-65 6 -4 5 -10 -3 -15 -12 -7 -12 -9 0 -9 10 0 11 -3 2 -14 -9 -11 -9 -16 0
-21 8 -6 7 -10 -2 -16 -11 -7 -11 -9 -1 -9 7 0 10 -5 7 -11 -11 -17 -13 -59
-3 -65 6 -4 5 -10 -3 -15 -12 -7 -12 -9 0 -9 10 0 11 -3 2 -14 -9 -11 -9 -16
0 -21 8 -6 7 -10 -2 -16 -12 -7 -12 -9 0 -9 11 0 11 -3 1 -15 -10 -12 -10 -15
0 -15 9 0 10 -3 1 -13 -8 -10 -7 -17 1 -25 9 -9 9 -12 -1 -12 -10 0 -11 -3 -2
-13 6 -8 8 -17 4 -21 -11 -10 -10 -40 1 -48 6 -4 5 -12 -2 -21 -10 -12 -9 -18
3 -31 12 -12 13 -16 3 -16 -10 0 -11 -2 0 -8 8 -5 10 -16 6 -27 -5 -13 -4 -16
4 -11 8 5 12 0 12 -13 0 -11 5 -23 10 -26 6 -3 10 -15 10 -26 0 -10 5 -19 12
-19 6 0 8 -3 5 -6 -10 -10 13 -45 25 -38 6 4 9 1 6 -6 -5 -15 25 -50 42 -50 6
0 10 -6 10 -14 0 -7 14 -19 30 -26 17 -7 30 -17 30 -22 0 -5 5 -6 10 -3 6 3
10 -1 10 -10 0 -11 5 -15 15 -11 8 3 15 1 15 -5 0 -6 6 -9 14 -6 8 3 17 -1 20
-9 3 -9 11 -12 16 -9 6 4 17 1 25 -5 12 -10 15 -10 15 0 0 10 3 10 15 0 9 -7
13 -20 10 -28 -5 -13 -3 -13 11 -1 16 13 16 12 7 -6 -11 -24 -11 -35 1 -54 6
-9 5 -12 -2 -7 -12 7 -9 -64 4 -85 4 -7 3 -10 -4 -5 -7 4 -9 -7 -7 -34 2 -22
-1 -38 -6 -34 -5 3 -9 1 -9 -5 0 -11 -19 -9 -39 3 -9 6 -12 5 -8 -1 8 -12 -54
-10 -74 3 -8 4 -9 3 -5 -4 5 -8 -2 -10 -22 -6 -16 3 -40 0 -53 -7 -22 -11 -23
-11 -11 4 11 13 10 15 -7 10 -12 -3 -18 -9 -15 -14 3 -5 1 -9 -4 -9 -5 0 -8
-12 -6 -27 1 -15 -3 -34 -9 -42 -10 -12 -9 -14 6 -8 11 4 16 3 12 -3 -4 -6 1
-17 9 -26 9 -9 16 -11 16 -4 0 6 5 8 12 4 16 -10 50 -10 65 -1 6 4 14 3 18 -3
9 -14 27 -2 19 13 -3 7 2 3 10 -7 10 -13 16 -15 16 -7 0 11 3 11 15 1 12 -10
15 -10 15 1 0 10 3 10 12 1 8 -8 15 -9 25 -1 7 7 13 7 13 2 0 -11 29 -11 48 1
7 4 12 2 12 -6 0 -10 2 -10 9 1 6 9 10 10 16 2 5 -9 10 -9 21 0 11 9 14 8 14
-2 0 -12 2 -12 9 0 6 9 10 10 16 2 5 -9 10 -9 20 -1 10 8 15 8 20 0 5 -8 11
-8 21 1 11 9 14 8 14 -2 0 -12 2 -12 9 0 6 9 10 10 16 2 5 -9 10 -9 21 0 11 9
14 8 14 -2 0 -12 2 -12 9 0 6 9 10 10 16 2 4 -8 11 -9 18 -3 7 5 20 8 30 7 9
-2 17 1 17 6 0 6 3 8 8 6 4 -3 8 6 8 19 1 13 -2 24 -8 24 -5 0 -5 6 1 17 7 12
5 21 -7 30 -15 12 -15 12 3 7 19 -5 19 -5 2 6 -10 6 -25 9 -33 6 -8 -3 -14 0
-14 7 0 9 -3 8 -9 -1 -9 -15 -20 -15 -37 -1 -8 6 -14 4 -18 -7 -5 -13 -9 -14
-21 -4 -8 6 -18 9 -24 6 -5 -3 -12 0 -14 6 -3 7 -6 8 -6 2 -1 -15 -58 -5 -73
14 -10 12 -10 14 0 8 15 -9 16 6 0 22 -7 7 -8 12 -2 12 13 0 15 52 2 68 -7 8
-7 12 1 12 7 0 10 4 7 9 -4 5 -2 21 4 36 7 17 7 24 0 20 -13 -8 -13 25 0 45 5
8 10 12 10 7 0 -4 12 -1 28 6 15 8 35 13 44 12 10 -2 21 2 25 8 5 7 19 18 32
25 19 11 22 11 16 0 -3 -7 1 -4 10 7 9 11 20 19 25 18 5 -2 20 11 34 28 14 17
26 27 26 22 0 -4 8 7 16 25 9 17 24 32 33 32 12 0 13 2 3 9 -11 7 -10 9 3 15
9 3 13 10 10 16 -3 6 1 13 10 16 12 5 13 9 4 21 -10 11 -9 13 2 11 9 -2 13 4
11 15 -2 9 2 17 7 17 6 0 8 6 5 14 -3 8 0 17 6 21 9 6 9 10 -1 16 -11 7 -11 9
-1 9 7 0 10 5 7 10 -3 6 -1 10 5 10 6 0 8 5 4 12 -12 18 -11 58 1 58 6 0 7 3
0 8 -5 4 -10 16 -10 27 0 11 5 23 10 27 6 5 6 8 -2 8 -8 0 -9 9 -3 30 7 25 6
30 -8 30 -14 0 -14 2 -3 9 8 5 11 16 8 25 -4 9 -1 16 6 17 7 0 3 4 -8 9 -11 5
-15 9 -9 9 7 1 14 12 16 26 3 13 2 22 -3 20 -4 -3 -10 -1 -14 5 -3 5 -2 10 3
10 5 0 10 20 10 45 1 33 -2 44 -11 40 -7 -4 -3 1 7 9 11 9 15 16 9 16 -6 0 -9
9 -6 20 3 13 0 20 -8 21 -8 0 -5 4 6 9 11 5 14 9 8 9 -7 1 -13 6 -13 12 0 5 4
8 9 4 6 -3 6 6 1 24 -6 21 -5 31 3 35 8 3 8 5 -1 5 -7 1 -10 6 -7 11 3 6 1 10
-4 10 -6 0 -11 8 -11 18 0 10 -3 13 -8 7 -8 -11 -73 -12 -90 -1 -6 3 -15 -2
-21 -11 -7 -12 -11 -13 -11 -5 0 8 -6 12 -12 9 -7 -2 -21 0 -30 4 -11 6 -19 5
-24 -3 -5 -7 -3 -8 6 -3 9 5 11 4 6 -4 -6 -9 -11 -9 -21 -1 -7 6 -21 7 -30 3
-11 -4 -16 -2 -12 3 3 5 -6 9 -21 8 -14 0 -28 -6 -30 -13 -3 -8 -9 -6 -19 6
-8 10 -12 12 -8 5 5 -10 0 -11 -19 -6 -18 4 -26 2 -27 -7 0 -8 -4 -5 -9 6 -5
11 -9 14 -9 7 -1 -9 -6 -10 -20 -2 -16 8 -22 6 -30 -7 -7 -12 -11 -13 -11 -5
0 8 -6 12 -12 9 -7 -2 -21 0 -30 4 -11 6 -19 5 -24 -3 -5 -7 -3 -8 6 -3 9 5
11 4 6 -4 -6 -9 -11 -9 -21 -1 -7 6 -21 7 -30 3 -11 -4 -16 -2 -12 3 3 5 -6 9
-21 8 -14 0 -28 -6 -30 -13 -3 -8 -9 -6 -19 6 -8 10 -12 12 -8 5 5 -10 0 -11
-19 -6 -18 4 -26 2 -27 -7 0 -8 -4 -5 -9 6 -5 11 -9 14 -9 7 -1 -9 -6 -10 -20
-2 -16 8 -22 6 -30 -7 -7 -12 -10 -13 -11 -4 0 7 -6 11 -14 8 -7 -3 -19 0 -25
6 -8 8 -11 8 -11 -2z m698 -144 c4 0 6 -3 5 -8 -2 -5 3 -9 10 -9 8 0 7 -4 -3
-10 -13 -9 -13 -10 0 -10 13 0 13 -1 0 -10 -13 -8 -13 -10 0 -10 11 0 11 -3 2
-12 -8 -8 -9 -15 -1 -25 9 -10 8 -13 -2 -13 -11 0 -11 -2 1 -10 13 -9 13 -10
0 -10 -12 0 -12 -2 -1 -9 9 -6 10 -10 2 -16 -9 -5 -9 -10 0 -21 9 -11 8 -14
-2 -14 -11 0 -11 -2 1 -10 13 -9 13 -10 0 -10 -12 0 -12 -2 -1 -9 9 -6 10 -10
2 -16 -9 -5 -9 -10 0 -21 9 -11 8 -14 -2 -14 -12 0 -12 -2 0 -9 8 -5 10 -14 5
-22 -11 -18 -11 -49 -1 -71 5 -12 3 -18 -5 -19 -10 0 -10 -2 0 -6 6 -2 12 -9
12 -14 0 -6 -6 -7 -12 -3 -9 5 -9 2 1 -9 9 -12 10 -17 2 -17 -8 0 -9 -6 -3
-17 5 -11 3 -32 -4 -53 -7 -19 -13 -29 -13 -21 -1 8 -4 12 -7 9 -3 -4 -1 -16
6 -27 8 -17 8 -21 -2 -19 -7 2 -12 -3 -10 -9 1 -7 -2 -13 -8 -13 -5 0 -10 -7
-10 -16 0 -8 -4 -12 -10 -9 -9 6 -14 -8 -11 -27 0 -5 -5 -8 -12 -8 -17 0 -47
-36 -39 -46 4 -4 1 -4 -6 0 -7 4 -20 0 -29 -9 -9 -9 -24 -14 -35 -12 -10 3
-16 1 -12 -4 4 -8 -17 -14 -38 -10 -5 0 -8 -4 -8 -10 0 -8 -5 -8 -15 1 -14 12
-20 7 -16 -14 1 -5 -4 -4 -11 2 -9 7 -19 7 -28 2 -10 -6 -21 -4 -32 7 -12 11
-18 12 -18 4 0 -7 -5 -9 -12 -4 -7 4 -19 8 -27 10 -8 1 -17 7 -21 14 -4 6 -12
9 -18 5 -6 -3 -12 -1 -14 4 -2 6 -13 12 -25 13 -12 0 -20 3 -18 5 2 2 -17 25
-43 50 -26 25 -40 42 -32 37 9 -5 8 0 -4 13 -11 12 -15 22 -10 22 5 0 3 4 -5
9 -7 5 -13 20 -13 35 0 15 -5 23 -11 19 -5 -3 -7 0 -5 8 3 8 -1 22 -10 31 -13
16 -13 18 2 24 9 3 13 11 9 17 -11 18 -12 67 0 60 6 -4 7 -1 2 7 -11 18 -14
80 -4 113 5 16 4 25 -2 22 -5 -4 -9 -1 -9 4 0 6 6 11 13 12 6 0 3 4 -8 9 -11
5 -15 9 -9 9 7 1 14 12 16 26 3 13 1 22 -3 19 -12 -7 -11 13 0 54 6 18 6 30 1
27 -4 -3 -7 6 -6 19 0 13 4 22 9 19 4 -2 7 3 7 11 0 9 6 16 14 16 8 0 17 6 20
13 5 9 7 9 12 0 4 -10 11 -10 26 -2 16 8 19 8 13 -1 -6 -9 -2 -9 14 -1 16 9
21 9 21 0 0 -9 3 -9 14 0 9 8 16 8 20 2 5 -7 15 -7 32 -1 18 7 23 7 18 -1 -4
-8 0 -8 15 0 16 9 21 9 21 0 0 -8 4 -8 15 1 11 9 15 9 15 1 0 -9 5 -9 20 -1
15 8 20 8 20 -1 0 -8 4 -8 13 -1 8 7 18 7 27 2 8 -5 21 -5 32 1 13 7 18 6 18
-2 0 -9 3 -9 14 0 9 8 16 8 20 2 5 -7 15 -7 32 -1 18 7 23 7 18 -1 -4 -8 0 -8
15 0 16 9 21 9 21 0 0 -8 5 -7 17 2 9 8 14 9 10 2 -8 -13 18 -12 30 2 4 4 2 5
-6 0 -10 -6 -12 -4 -6 5 6 10 11 9 22 -6 8 -10 17 -18 21 -17z"/>
<path d="M6445 9230 c-4 -6 -11 -7 -17 -4 -5 4 -20 1 -33 -6 -19 -10 -22 -17
-15 -34 4 -13 4 -29 -1 -39 -6 -11 -6 -17 -1 -17 6 0 13 -7 16 -16 3 -8 2 -13
-3 -10 -5 3 -11 -1 -15 -9 -3 -8 0 -15 6 -15 7 0 6 -5 -2 -15 -10 -12 -10 -15
1 -15 12 0 12 -2 0 -9 -10 -7 -10 -10 -1 -13 10 -3 10 -9 2 -24 -6 -12 -7 -26
-1 -36 6 -11 5 -19 -2 -24 -8 -4 -7 -9 2 -15 11 -7 11 -9 -1 -9 -12 0 -12 -2
-1 -9 10 -6 10 -13 3 -28 -6 -11 -7 -25 -2 -33 5 -9 4 -20 -2 -28 -9 -10 -6
-14 10 -19 12 -3 22 -9 22 -14 0 -5 5 -9 11 -9 5 0 7 5 3 11 -4 8 0 8 15 0 15
-8 21 -9 21 -1 0 6 4 9 9 5 9 -5 23 12 33 40 1 6 7 9 13 7 5 -2 1 6 -10 18
-16 18 -16 20 -2 14 13 -5 16 -2 11 10 -10 27 -10 136 1 140 6 3 4 5 -3 5 -7
1 -10 6 -7 11 4 6 1 18 -6 26 -10 12 -9 13 5 8 20 -8 21 0 0 20 -8 9 -11 16
-5 16 6 0 10 21 10 50 -1 28 -6 50 -11 50 -5 0 -7 4 -4 9 3 5 -1 12 -10 15 -8
3 -12 2 -9 -4 3 -6 -1 -10 -10 -10 -9 0 -13 5 -10 10 3 6 4 10 1 10 -3 0 -8
-5 -11 -10z"/>
<path d="M6653 9228 c4 -11 2 -17 -6 -15 -7 1 -12 -8 -11 -20 0 -13 -4 -23 -9
-23 -5 0 -4 -7 3 -15 10 -12 10 -15 -1 -15 -11 0 -11 -3 1 -11 11 -8 12 -12 3
-15 -8 -4 -9 -13 -3 -30 5 -13 6 -24 2 -24 -9 0 -7 -74 3 -89 3 -6 2 -11 -4
-11 -6 0 -8 -7 -5 -15 4 -8 11 -12 18 -8 7 5 7 2 -1 -8 -13 -16 -18 -89 -9
-126 2 -13 1 -23 -3 -23 -5 0 -6 -12 -3 -26 4 -21 2 -25 -9 -19 -11 7 -11 5 1
-10 8 -10 10 -16 4 -12 -7 4 -15 -1 -18 -11 -10 -27 -36 -68 -36 -57 0 6 -10
-1 -21 -15 -11 -14 -18 -18 -14 -10 6 13 5 13 -7 0 -8 -10 -31 -15 -60 -15
-31 0 -50 -5 -53 -14 -3 -7 -12 -10 -21 -7 -12 4 -15 2 -10 -9 3 -8 0 -15 -7
-15 -8 0 -7 -3 2 -9 12 -8 12 -12 2 -25 -9 -11 -10 -16 -2 -16 6 0 11 -5 11
-11 0 -5 -6 -7 -12 -3 -10 5 -10 4 -1 -6 9 -9 9 -19 2 -33 -8 -15 -8 -18 1
-12 9 6 9 2 1 -14 -7 -11 -8 -21 -2 -21 5 0 12 -7 15 -16 3 -8 2 -13 -3 -10
-5 3 -11 -1 -15 -9 -3 -8 0 -15 6 -15 7 0 6 -5 -2 -15 -10 -12 -10 -15 1 -15
11 0 11 -2 -1 -10 -12 -7 -12 -10 -1 -10 8 0 11 -6 6 -17 -14 -37 -13 -64 3
-58 12 4 13 3 2 -10 -7 -8 -9 -15 -6 -15 4 0 2 -9 -4 -20 -6 -11 -7 -20 -2
-20 10 0 9 -30 -2 -48 -4 -6 -3 -12 3 -12 10 0 10 -18 -2 -37 -4 -6 -3 -15 3
-18 8 -5 7 -11 -1 -22 -8 -9 -9 -17 -3 -21 11 -8 11 -32 1 -49 -5 -7 -4 -13 2
-13 10 0 10 -18 -2 -37 -4 -6 -3 -15 3 -18 8 -5 8 -11 0 -20 -12 -15 13 -41
30 -30 5 3 10 0 10 -7 0 -10 2 -10 9 1 6 9 10 10 16 2 5 -9 10 -9 20 -1 10 8
14 7 18 -2 4 -11 6 -10 6 0 1 7 5 11 9 8 5 -3 8 26 8 64 -1 41 3 70 9 70 7 0
7 3 0 8 -5 4 -10 40 -10 80 0 41 4 72 10 72 6 0 3 5 -5 10 -13 9 -13 10 0 10
13 0 13 1 0 11 -12 8 -12 12 -2 16 10 4 9 9 -5 19 -17 13 -17 14 1 7 15 -5 17
-3 11 7 -5 8 -8 37 -7 64 0 28 -4 56 -10 63 -8 10 -7 12 6 7 12 -5 15 -2 10
10 -3 9 -11 16 -18 16 -7 0 -6 3 2 9 8 5 11 21 9 44 -3 27 0 37 10 37 8 0 11
5 8 10 -6 9 8 14 28 11 4 -1 10 5 13 13 3 8 11 13 17 11 17 -6 50 21 42 34 -3
6 0 9 8 5 8 -3 18 0 22 5 3 6 11 8 17 5 7 -4 8 -2 4 5 -5 7 2 21 17 35 28 26
59 104 58 149 0 9 5 15 11 11 7 -4 7 0 -1 13 -7 14 -7 24 2 33 9 10 9 11 0 6
-16 -9 -17 10 -2 20 8 5 8 9 -1 14 -9 6 -9 12 0 30 8 15 8 20 1 16 -6 -4 -11
-3 -11 3 0 5 5 13 11 17 8 5 8 9 -1 14 -9 6 -9 12 0 30 8 15 8 20 1 16 -6 -4
-11 -3 -11 3 0 5 5 13 11 17 8 5 8 9 -1 14 -9 6 -9 12 0 30 8 15 8 20 1 16
-15 -10 -14 7 1 22 7 7 8 12 2 12 -6 0 -11 13 -11 30 0 16 3 27 7 25 9 -5 6
33 -3 41 -4 4 -7 16 -7 27 0 14 -5 18 -20 14 -11 -3 -23 -1 -26 5 -4 6 -9 5
-14 -3 -7 -10 -12 -10 -26 2 -16 12 -17 12 -11 -3z"/>
<path d="M8569 8473 c-13 -16 -12 -17 4 -4 16 13 21 21 13 21 -2 0 -10 -8 -17
-17z"/>
<path d="M7039 6943 c-13 -16 -12 -17 4 -4 9 7 17 15 17 17 0 8 -8 3 -21 -13z"/>
<path d="M2653 6293 c-3 -7 -2 -20 1 -30 6 -14 8 -14 22 3 9 10 13 14 10 7 -9
-17 13 -27 29 -13 11 10 15 10 15 1 0 -7 5 -9 12 -5 7 5 9 2 5 -8 -3 -9 0 -21
6 -27 8 -8 8 -11 0 -11 -11 0 -11 -49 1 -68 4 -7 4 -12 -1 -12 -12 0 -10 -134
2 -142 6 -5 5 -8 -3 -8 -10 0 -10 -5 -1 -21 6 -12 7 -19 2 -16 -10 6 -9 -106
2 -123 5 -8 4 -11 -2 -7 -11 7 -10 -53 1 -72 4 -6 3 -11 -2 -11 -11 0 -9 -50
2 -68 4 -7 3 -12 -1 -12 -5 0 -9 -15 -9 -34 0 -19 4 -32 9 -29 5 3 4 -3 -2
-14 -7 -14 -7 -23 1 -31 8 -8 5 -9 -9 -6 -12 3 -24 1 -28 -6 -5 -8 -10 -8 -21
1 -11 9 -14 9 -14 0 0 -7 -4 -10 -9 -7 -10 6 -25 -24 -16 -32 3 -3 5 -2 5 3 0
4 7 2 15 -5 12 -10 15 -10 15 0 0 9 3 10 13 1 10 -8 17 -7 27 2 10 9 11 9 6 0
-4 -7 -2 -13 3 -13 6 0 11 5 11 11 0 8 6 7 17 -2 14 -12 16 -12 8 0 -6 10 -4
12 5 6 20 -12 80 -15 80 -4 0 6 7 6 20 -1 15 -8 20 -8 20 2 0 6 7 3 16 -8 8
-10 13 -13 9 -6 -5 9 8 12 52 11 80 -2 82 -1 78 19 -2 9 -4 21 -4 26 -1 6 -8
1 -16 -10 -9 -11 -13 -13 -10 -4 4 11 -3 15 -28 14 -19 -1 -39 -4 -45 -8 -6
-3 -13 -2 -17 4 -9 15 -27 12 -19 -2 4 -7 -1 -5 -11 4 -16 15 -16 19 -4 34 12
15 12 17 -1 12 -11 -4 -15 1 -15 17 0 13 4 21 9 18 5 -4 6 5 2 20 -3 14 -2 29
4 32 7 4 7 13 0 26 -6 10 -8 19 -4 19 3 0 0 8 -7 17 -10 11 -10 14 -1 9 7 -4
12 -2 12 6 0 8 -6 20 -12 27 -11 11 -10 12 1 6 10 -6 13 -4 8 7 -3 9 0 21 6
28 9 10 9 11 0 6 -9 -5 -12 1 -11 18 2 17 10 27 28 32 37 10 110 10 110 0 0
-4 7 -6 15 -3 8 4 17 2 20 -4 4 -5 11 -7 16 -4 5 4 9 -1 9 -10 0 -10 5 -13 12
-9 8 5 9 2 5 -9 -3 -10 -2 -17 2 -17 5 0 7 -10 3 -22 -3 -14 -1 -19 6 -14 8 5
10 1 5 -9 -4 -13 -1 -16 13 -13 10 2 18 10 16 17 -1 7 2 19 8 26 7 9 8 15 1
20 -14 8 -11 75 3 75 7 0 6 4 -2 8 -14 10 -13 64 3 74 6 5 5 8 -3 8 -9 0 -11
7 -7 19 3 11 0 23 -6 27 -8 5 -9 3 -4 -7 7 -11 6 -12 -7 -2 -16 14 -28 8 -28
-14 0 -9 5 -11 13 -7 9 6 9 5 0 -8 -7 -8 -9 -19 -5 -23 4 -5 2 -5 -5 -1 -7 3
-14 -2 -18 -14 -3 -11 -13 -20 -21 -20 -10 0 -12 -5 -8 -12 6 -10 4 -10 -8 0
-13 10 -17 10 -22 -4 -6 -16 -8 -16 -25 0 -13 12 -21 14 -26 6 -8 -13 -47 -10
-57 5 -4 6 -8 1 -8 -9 0 -20 0 -20 -14 0 -11 15 -12 22 -3 33 9 12 9 13 0 7
-8 -4 -13 -1 -13 8 0 9 5 16 12 16 6 0 3 7 -8 16 -10 8 -13 13 -6 9 9 -5 11 3
6 30 -4 29 -3 35 8 29 10 -6 10 -4 -1 10 -10 12 -11 20 -3 28 8 8 8 17 1 30
-5 10 -7 18 -3 18 3 0 0 8 -7 17 -12 14 -12 16 0 8 11 -6 13 -3 7 19 -4 18 -2
26 6 26 10 0 10 2 1 8 -17 11 1 35 26 37 12 1 21 -3 21 -9 0 -6 5 -5 12 2 7 7
17 12 23 12 5 0 3 -5 -5 -10 -9 -6 -10 -10 -3 -10 6 0 15 5 19 11 4 8 9 7 14
-2 7 -10 11 -10 24 0 13 11 16 11 16 0 0 -11 2 -11 10 1 6 10 10 11 10 3 0 -7
5 -13 11 -13 5 0 8 4 5 8 -2 4 4 8 14 8 10 0 16 -4 14 -8 -8 -12 11 -9 24 4 9
9 12 9 12 -1 0 -7 6 -11 14 -8 7 3 21 -4 30 -14 9 -11 21 -17 26 -14 6 3 10
-3 10 -14 0 -11 10 -27 22 -35 12 -9 18 -16 12 -16 -6 0 -11 -7 -11 -15 0 -8
4 -15 8 -15 4 0 9 -12 11 -27 2 -16 9 -28 18 -28 18 0 30 45 17 63 -6 8 -5 12
3 12 10 0 10 3 0 15 -10 12 -10 15 1 15 11 0 11 2 -1 10 -12 8 -12 10 5 10 13
0 16 3 8 8 -11 7 -13 14 -14 70 0 18 -4 22 -20 17 -11 -4 -19 -2 -19 4 0 6 -7
11 -16 11 -8 0 -13 -4 -10 -8 3 -5 -1 -9 -9 -9 -8 0 -15 4 -15 8 0 5 -11 4
-25 -1 -14 -5 -25 -6 -25 -1 0 5 -11 8 -24 7 -13 0 -22 -4 -19 -8 2 -5 0 -8
-6 -8 -5 0 -11 5 -13 11 -3 9 -9 9 -25 0 -15 -8 -24 -8 -28 -1 -5 8 -12 7 -23
-2 -11 -9 -16 -10 -19 -2 -4 11 -55 10 -73 -1 -5 -3 -10 1 -13 7 -3 11 -9 11
-26 0 -15 -9 -21 -9 -21 -1 0 8 -5 8 -15 -1 -11 -9 -15 -9 -15 -1 0 9 -5 9
-20 1 -11 -6 -20 -7 -20 -2 0 10 -30 9 -48 -2 -6 -4 -12 -3 -12 3 0 11 -19 9
-39 -3 -9 -6 -12 -5 -8 1 4 7 -3 10 -19 9 -15 0 -29 -7 -31 -13z"/>
<path d="M8746 6294 c-20 -14 -20 -14 0 -28 14 -11 21 -11 26 -3 6 9 10 8 17
-2 6 -10 13 -11 29 -2 18 10 20 9 17 -9 -2 -11 0 -22 4 -25 9 -5 7 -48 -4 -64
-3 -6 0 -11 7 -11 8 0 9 -3 3 -8 -14 -10 -17 -32 -4 -32 6 0 7 -5 2 -12 -12
-20 -12 -38 -1 -38 6 0 5 -6 -2 -15 -10 -12 -10 -15 1 -15 9 0 10 -3 4 -8 -12
-9 -13 -32 -1 -51 6 -9 5 -12 -2 -7 -7 4 -10 -1 -9 -14 1 -11 5 -20 10 -20 5
0 4 -7 -3 -15 -10 -12 -10 -15 1 -15 9 0 10 -3 4 -8 -14 -10 -17 -32 -5 -32 7
0 7 -6 0 -20 -8 -15 -8 -20 2 -20 8 0 9 -3 3 -8 -14 -10 -17 -32 -4 -32 8 0 8
-4 0 -14 -9 -11 -9 -15 1 -19 10 -4 10 -6 -1 -6 -11 -1 -11 -4 -1 -16 10 -12
10 -15 0 -15 -9 0 -9 -4 1 -17 10 -11 10 -14 2 -9 -7 4 -13 2 -13 -3 0 -6 6
-11 13 -11 7 0 8 -3 2 -8 -14 -10 -17 -32 -4 -32 6 0 7 -5 2 -12 -10 -18 -13
-38 -4 -38 4 0 8 -7 8 -15 0 -8 -4 -12 -9 -9 -4 3 -8 -1 -8 -9 0 -8 -9 -17
-20 -20 -11 -3 -20 -1 -20 4 0 5 -5 9 -11 9 -5 0 -7 -6 -3 -12 6 -10 4 -10 -8
0 -14 11 -18 10 -27 -6 -12 -23 -5 -32 26 -32 17 0 22 -4 17 -12 -5 -9 -2 -8
9 1 12 9 31 12 59 8 27 -4 37 -2 27 4 -7 5 -9 9 -4 9 6 0 16 -4 23 -9 7 -4 33
-5 57 -1 24 4 42 3 40 -1 -7 -11 69 -5 77 6 5 7 8 6 8 0 0 -19 61 -11 72 9 7
13 7 17 0 12 -6 -3 -12 -2 -14 3 -5 15 -58 22 -58 8 0 -9 -2 -9 -8 0 -9 14
-44 12 -54 -2 -5 -6 -8 -5 -8 4 0 8 -6 11 -16 7 -11 -4 -15 -2 -11 8 3 8 1 17
-6 20 -9 3 -9 5 1 5 15 1 16 41 0 41 -6 0 -3 7 8 16 10 8 14 13 7 10 -6 -4
-14 -2 -18 4 -3 5 -2 10 3 10 5 0 12 9 15 20 3 11 1 17 -4 14 -6 -3 -8 6 -5
20 3 16 0 26 -7 26 -7 0 -4 5 6 11 17 10 17 12 2 29 -11 12 -13 20 -5 25 8 5
7 11 -2 23 -8 10 -9 13 -1 9 8 -5 13 2 15 20 2 14 9 29 17 31 8 3 11 0 8 -5
-3 -5 3 -9 14 -9 10 0 19 4 19 9 0 4 5 5 10 2 6 -4 18 -1 27 7 14 11 16 11 8
-1 -6 -11 -2 -13 19 -9 18 4 29 1 33 -8 3 -8 14 -14 24 -14 11 0 19 -7 19 -16
0 -9 5 -12 13 -8 8 5 8 2 -2 -9 -10 -13 -10 -17 -1 -17 9 0 9 -4 -1 -17 -8 -9
-9 -14 -3 -10 7 4 14 -2 18 -16 6 -22 7 -22 21 -3 16 21 20 40 7 32 -5 -3 -9
1 -9 9 0 8 4 12 9 9 5 -3 6 7 3 23 -5 21 -4 24 4 13 6 -8 11 -10 11 -4 0 5 -5
15 -11 21 -8 8 -8 13 1 18 8 5 6 13 -7 28 -10 11 -13 18 -7 14 7 -4 11 12 12
48 0 39 -3 55 -15 59 -22 9 -36 -3 -23 -19 7 -9 6 -16 -5 -25 -9 -7 -13 -20
-10 -27 3 -9 0 -13 -7 -11 -7 3 -21 -5 -31 -16 -10 -12 -15 -14 -11 -6 6 12 5
13 -7 4 -16 -12 -29 -12 -45 -1 -7 4 -17 0 -24 -8 -13 -16 -43 -9 -33 9 4 6
-2 4 -12 -4 -14 -11 -19 -12 -22 -2 -3 6 -11 12 -20 12 -13 0 -13 2 0 15 16
15 12 59 -4 49 -5 -3 -6 2 -3 10 3 9 11 13 18 10 6 -3 2 2 -8 10 -11 9 -15 16
-9 16 6 0 13 7 16 14 4 11 1 13 -11 9 -13 -5 -15 -4 -6 8 13 18 16 57 3 64 -5
4 -2 17 7 30 10 15 13 32 9 42 -18 42 -13 49 29 48 23 0 49 3 59 8 11 5 17 4
17 -4 0 -8 4 -8 15 1 8 7 15 8 15 3 0 -5 9 -9 19 -10 14 -1 18 3 15 15 -5 14
-4 14 6 -1 9 -14 15 -15 25 -7 9 8 15 8 20 0 3 -6 11 -8 16 -4 5 3 21 -2 36
-11 14 -9 22 -12 19 -6 -5 7 -1 9 9 5 9 -4 13 -9 11 -12 -9 -8 15 -33 25 -26
5 3 6 -2 3 -10 -3 -9 -1 -16 5 -16 6 0 8 -7 5 -15 -4 -9 0 -15 7 -15 11 0 11
-3 -1 -10 -11 -7 -11 -10 -2 -10 7 0 10 -4 7 -10 -3 -5 0 -10 7 -10 11 0 11
-2 0 -9 -10 -6 -9 -11 4 -22 13 -11 18 -11 21 -1 3 6 8 10 12 8 4 -3 8 1 8 9
0 8 -5 11 -11 8 -6 -4 -5 1 3 10 11 14 11 17 0 17 -11 0 -11 2 1 10 12 8 12
10 1 10 -11 0 -11 3 0 17 12 15 12 16 -1 8 -13 -8 -13 -7 -1 9 13 15 13 19 0
27 -10 6 -11 9 -1 9 10 0 10 5 1 21 -6 13 -7 19 -1 15 11 -7 10 8 -3 37 -6 15
-10 16 -16 5 -6 -8 -9 -9 -9 -1 0 12 -18 12 -39 -1 -8 -5 -16 -4 -21 4 -5 9
-13 9 -27 1 -11 -5 -23 -8 -26 -5 -9 9 -57 12 -51 3 3 -5 0 -9 -5 -9 -6 0 -11
4 -11 8 0 10 -30 9 -48 -2 -7 -4 -12 -2 -12 5 0 8 -4 8 -13 1 -8 -7 -18 -7
-27 -2 -8 5 -22 4 -33 -2 -11 -5 -17 -6 -14 -1 3 4 -12 8 -33 9 -22 0 -36 -4
-33 -10 3 -5 1 -6 -5 -2 -17 10 -72 14 -66 5 3 -5 0 -9 -5 -9 -6 0 -11 5 -11
10 0 7 -6 7 -19 0 -14 -7 -20 -7 -23 2 -3 8 -10 8 -27 -2 -15 -7 -21 -8 -17
-1 4 6 3 11 -3 11 -5 0 -13 -5 -17 -11 -4 -7 -9 -8 -13 -1 -4 7 -13 5 -25 -4z"/>
<path d="M5285 2830 c-5 -7 24 -38 32 -32 10 7 23 0 23 -13 0 -8 3 -15 8 -15
4 0 8 -32 9 -72 3 -82 -7 -96 -47 -68 -23 16 -44 19 -92 11 -14 -2 -47 -44
-42 -53 3 -4 -2 -8 -11 -8 -9 0 -14 -4 -11 -9 3 -5 -1 -12 -10 -15 -8 -3 -12
-10 -9 -16 12 -20 14 -50 2 -50 -8 0 -8 -3 1 -12 7 -7 12 -22 12 -34 0 -24 22
-48 35 -36 5 4 5 2 1 -5 -9 -16 30 -37 70 -39 17 0 35 -3 40 -7 6 -3 16 -2 24
4 20 12 33 11 24 -2 -4 -8 -1 -8 12 -2 15 8 125 10 144 3 3 -2 10 -1 15 0 6 1
25 2 43 2 24 0 32 4 32 18 0 10 -7 21 -16 24 -14 5 -13 11 7 43 25 41 44 63
54 63 3 0 3 -6 -1 -12 -5 -8 -1 -8 12 2 10 8 16 10 12 6 -4 -5 0 -15 10 -23
10 -9 11 -11 2 -7 -13 7 -13 5 -1 -9 7 -9 17 -14 22 -11 5 3 6 -2 3 -10 -3 -8
3 -23 14 -34 20 -20 20 -20 -1 -26 -17 -4 -18 -7 -8 -20 8 -9 18 -13 25 -9 18
11 70 10 78 -1 5 -7 8 -4 8 7 0 9 5 17 11 17 5 0 7 -5 3 -12 -4 -7 -3 -8 4 -4
17 11 15 15 -13 26 -14 5 -25 17 -25 25 0 9 -4 13 -10 10 -6 -3 -7 1 -4 9 3 9
1 16 -6 16 -6 0 -8 5 -5 10 3 6 -1 10 -10 10 -9 0 -13 5 -10 10 3 6 1 10 -4
10 -6 0 -11 7 -11 15 0 8 -4 15 -10 15 -5 0 -10 5 -10 11 0 7 -8 18 -17 26
-11 8 -12 11 -3 7 13 -7 13 -5 2 8 -10 13 -10 17 3 22 8 3 15 10 15 16 0 5 8
19 18 29 33 38 43 51 35 51 -4 0 4 11 20 24 16 14 25 30 21 39 -8 22 -42 28
-59 10 -19 -18 -20 -29 -2 -14 23 18 14 -25 -10 -53 -12 -13 -19 -27 -16 -30
3 -3 -2 -8 -11 -12 -9 -3 -14 -9 -12 -13 2 -3 -1 -10 -8 -16 -16 -14 -39 -18
-31 -5 3 5 1 10 -5 10 -6 0 -9 4 -5 9 3 5 -4 12 -15 16 -11 3 -20 11 -20 16 0
6 5 7 12 3 7 -4 8 -3 4 4 -4 7 -13 12 -21 12 -9 0 -12 8 -9 26 3 18 1 23 -7
18 -8 -5 -9 -3 -5 5 5 7 15 10 25 6 10 -4 12 -3 6 3 -17 16 -55 24 -55 12 0
-6 -5 -8 -12 -3 -21 12 -38 12 -38 0 0 -9 -2 -9 -8 -1 -5 9 -11 8 -20 -2 -11
-12 -10 -14 3 -14 9 0 13 -5 10 -10 -4 -6 -3 -9 2 -8 4 2 10 -1 12 -7 9 -19
26 -33 35 -27 5 3 7 -2 3 -10 -3 -10 5 -24 23 -38 16 -13 27 -27 24 -31 -3 -5
0 -9 5 -9 19 0 13 -87 -7 -102 -10 -7 -21 -21 -25 -31 -4 -11 -12 -15 -18 -11
-8 4 -9 3 -5 -4 4 -7 2 -12 -4 -12 -7 0 -10 -7 -7 -14 4 -11 1 -13 -10 -9 -10
4 -14 2 -10 -4 4 -6 -6 -9 -24 -8 -16 1 -34 -4 -40 -11 -14 -17 -53 1 -42 19
12 20 12 71 0 86 -9 12 -9 13 1 7 7 -4 12 -2 12 8 0 8 -6 17 -12 19 -7 3 -8 6
-2 6 11 1 11 52 0 70 -4 5 -1 13 5 17 8 5 9 3 4 -6 -5 -9 -4 -11 4 -6 6 4 8
13 4 19 -4 7 -9 44 -10 82 -2 85 -5 104 -12 103 -3 -1 -14 2 -24 7 -10 4 -20
5 -23 2 -3 -3 -19 -1 -35 3 -16 5 -31 5 -34 0z m-5 -239 c0 4 14 4 31 0 33 -7
37 -16 42 -101 1 -19 5 -40 10 -47 4 -6 2 -15 -4 -19 -8 -5 -10 -2 -5 7 4 8 1
7 -6 -2 -17 -21 -79 -30 -100 -15 -31 23 -44 117 -22 154 8 12 11 22 7 23 -5
0 1 4 12 8 12 5 23 4 27 -3 4 -6 8 -8 8 -5z"/>
<path d="M4210 2760 c0 -6 -4 -9 -8 -6 -4 2 -14 0 -22 -6 -12 -8 -12 -9 3 -4
9 3 17 1 17 -4 0 -6 3 -9 8 -7 4 1 9 -2 10 -8 2 -5 9 -16 15 -24 8 -10 8 -13
1 -8 -8 4 -11 -5 -10 -28 0 -19 6 -35 11 -35 6 0 4 -4 -4 -9 -13 -8 -13 -12 0
-27 9 -11 9 -15 1 -10 -14 8 -12 -19 2 -43 6 -10 5 -12 -3 -7 -8 6 -10 -1 -6
-25 3 -18 8 -36 11 -40 2 -4 -1 -11 -7 -15 -8 -5 -9 -3 -4 6 6 9 4 11 -4 6 -9
-6 -8 -13 6 -29 10 -12 12 -17 4 -12 -11 6 -13 4 -8 -8 6 -17 -24 -42 -37 -30
-3 3 -6 1 -6 -6 0 -7 6 -11 13 -8 6 2 17 -3 23 -11 9 -12 13 -12 19 -2 6 9 4
11 -5 5 -9 -6 -11 -4 -5 5 6 10 11 9 22 -5 7 -11 13 -14 13 -9 0 6 25 9 60 9
55 -2 58 -1 49 17 -6 11 -15 16 -22 11 -28 -17 -43 -10 -38 20 0 4 -4 7 -10 7
-6 0 -7 5 -2 13 10 17 10 68 0 91 -6 13 -6 16 2 12 6 -4 11 -2 11 3 0 20 65
12 83 -9 20 -23 40 -18 30 7 -5 12 -3 14 7 8 10 -6 10 -4 3 10 -6 10 -8 26 -6
36 7 26 -12 24 -37 -3 -11 -12 -20 -19 -20 -15 0 4 -10 3 -21 -4 -17 -9 -20
-8 -14 2 6 9 3 11 -8 6 -10 -3 -17 -2 -17 4 0 6 -5 7 -10 4 -13 -8 -8 18 5 27
6 4 2 14 -10 23 -11 9 -14 14 -7 10 6 -3 12 -3 13 2 0 4 2 16 4 26 2 9 -1 17
-7 17 -6 0 -4 7 3 17 9 11 10 14 2 9 -8 -4 -11 -2 -8 6 4 10 25 13 73 12 37 0
72 -2 77 -4 6 -1 13 -2 18 -1 4 0 6 -2 6 -6 -1 -5 -1 -19 0 -33 1 -19 4 -22
10 -10 5 8 9 17 8 20 0 3 5 16 12 29 8 14 9 21 2 17 -6 -4 -11 -3 -11 2 0 5
-9 12 -20 15 -13 3 -18 1 -13 -6 4 -7 0 -7 -9 1 -12 9 -18 10 -23 2 -5 -8 -11
-8 -19 -1 -9 7 -17 7 -26 -2 -7 -6 -10 -7 -7 -1 8 14 -65 13 -75 -1 -5 -6 -8
-6 -8 2 0 6 -9 11 -20 10 -11 -1 -20 -5 -20 -9 0 -5 -9 -4 -20 2 -14 8 -20 8
-20 0z"/>
<path d="M5810 2761 c0 -5 7 -12 16 -15 14 -5 15 -4 4 9 -14 17 -20 19 -20 6z"/>
<path d="M7493 2757 c4 -11 2 -14 -8 -11 -9 4 -19 -4 -26 -20 -7 -14 -17 -23
-23 -19 -6 3 -8 2 -3 -2 4 -5 -4 -20 -17 -34 -14 -14 -26 -33 -28 -41 -2 -8
-12 -22 -23 -32 -11 -9 -17 -17 -12 -18 4 0 -2 -9 -14 -21 -11 -11 -18 -27
-15 -34 3 -9 0 -12 -9 -9 -18 7 -31 -35 -15 -50 10 -8 11 -7 6 8 -6 18 -5 18
11 5 11 -8 40 -14 76 -14 31 0 57 -3 57 -8 0 -4 4 -6 9 -3 5 3 9 -5 9 -19 0
-14 -4 -22 -9 -19 -5 3 -6 -2 -3 -10 6 -14 -5 -21 -28 -17 -5 0 -8 -4 -8 -10
0 -5 -5 -7 -12 -3 -6 4 -8 3 -4 -4 3 -5 20 -8 37 -5 24 3 29 2 23 -9 -6 -10
-4 -10 9 1 14 11 20 11 34 0 9 -8 14 -9 10 -2 -5 8 4 10 28 8 19 -2 37 1 41 6
3 5 2 9 -3 8 -23 -4 -40 3 -41 16 -6 49 0 76 14 71 8 -3 12 2 11 13 -1 13 -7
17 -21 13 -12 -3 -17 -1 -12 6 3 6 -1 18 -10 26 -10 10 -11 16 -4 16 8 0 11
11 8 30 -3 17 0 30 6 30 7 0 7 3 1 8 -5 4 -10 21 -10 37 0 17 5 33 10 37 6 5
6 8 -1 8 -6 0 -9 12 -6 29 3 23 -1 32 -19 41 -19 11 -21 10 -16 -3z m-35 -98
c-2 -3 4 -14 12 -24 8 -11 10 -16 4 -12 -7 4 -14 -2 -17 -13 -3 -11 -1 -18 3
-15 5 3 6 -16 4 -42 -3 -27 -6 -53 -6 -58 -2 -24 -100 -3 -100 21 0 5 -5 8
-11 6 -7 -1 1 9 16 23 15 14 23 25 16 25 -7 0 -2 9 11 20 13 11 27 20 32 20 5
0 8 8 6 18 -3 21 10 44 24 40 5 -2 8 -6 6 -9z"/>
<path d="M7435 2650 c-3 -5 -1 -10 4 -10 6 0 11 5 11 10 0 6 -2 10 -4 10 -3 0
-8 -4 -11 -10z"/>
<path d="M4490 2675 c0 -8 2 -15 4 -15 2 0 6 7 10 15 3 8 1 15 -4 15 -6 0 -10
-7 -10 -15z"/>
<path d="M6027 2654 c-2 -2 -17 -5 -33 -7 -17 -2 -36 -7 -43 -11 -8 -5 -16 -3
-21 4 -6 10 -9 9 -13 -1 -4 -11 -6 -11 -6 -1 -1 16 -41 -3 -41 -20 0 -7 5 -7
14 1 12 10 14 8 9 -11 -4 -18 -3 -20 6 -8 9 12 10 7 9 -20 -2 -19 -7 -38 -13
-42 -6 -5 -6 -8 1 -8 12 0 13 -45 1 -56 -4 -4 -2 -13 4 -21 9 -10 8 -13 -2
-13 -11 0 -11 -2 0 -9 12 -8 12 -12 2 -24 -8 -11 -9 -16 -1 -19 8 -2 8 -11 1
-31 -8 -20 -8 -26 0 -22 13 9 8 -27 -6 -37 -6 -5 -6 -8 1 -8 6 0 10 -10 9 -22
-2 -13 -8 -22 -14 -20 -15 3 -14 -6 2 -23 9 -8 19 -10 27 -5 8 5 21 5 29 2 33
-15 51 -8 51 21 0 9 -2 9 -9 -1 -7 -11 -9 -10 -15 3 -3 9 -11 13 -17 9 -8 -4
-9 -3 -5 5 4 6 12 8 18 5 7 -4 7 0 0 13 -7 13 -7 25 1 38 10 19 9 19 -8 5 -17
-14 -18 -14 -6 8 7 13 10 29 8 36 -6 14 29 16 51 3 6 -5 12 -5 12 -1 0 3 7 1
15 -6 11 -9 15 -9 15 -1 0 7 5 9 10 6 6 -3 10 -2 10 4 0 5 9 8 20 6 11 -2 19
-1 17 3 -4 9 40 52 46 45 3 -2 4 11 3 30 -1 20 2 33 6 31 5 -3 8 2 8 11 0 10
-5 13 -12 9 -7 -5 -8 -3 -2 7 17 28 13 49 -16 80 -26 29 -113 73 -123 63z m19
-65 c18 1 44 -11 44 -20 0 -6 6 -7 13 -3 7 5 6 0 -3 -11 -9 -11 -10 -16 -2
-11 6 4 12 2 12 -3 0 -6 -4 -11 -10 -11 -5 0 -10 -5 -10 -11 0 -5 4 -8 8 -5 4
2 8 -4 8 -15 0 -10 -5 -19 -11 -19 -5 0 -4 -4 4 -9 9 -6 10 -11 2 -15 -6 -4
-11 -12 -11 -17 0 -6 4 -7 10 -4 6 3 7 -1 4 -10 -4 -9 -9 -14 -11 -11 -3 3
-13 -4 -23 -16 -16 -20 -18 -20 -49 -5 -19 10 -29 11 -25 4 4 -7 0 -5 -9 3
-19 18 -27 67 -16 97 5 12 4 25 0 28 -8 4 -8 26 -1 45 1 3 2 9 1 13 -1 5 3 6
9 2 5 -3 10 -2 10 4 0 13 33 19 41 8 3 -5 10 -8 15 -8z"/>
<path d="M6590 2650 c0 -5 -6 -7 -14 -4 -9 3 -17 -3 -21 -15 -3 -12 -11 -19
-16 -16 -5 4 -9 1 -9 -4 0 -6 -7 -11 -16 -11 -8 0 -13 -4 -10 -9 3 -5 -3 -20
-14 -34 -15 -18 -17 -28 -9 -33 8 -5 9 -3 4 6 -5 8 -4 11 3 6 6 -4 9 -13 6
-21 -4 -8 -11 -12 -18 -8 -6 4 -5 -1 3 -10 7 -9 11 -24 7 -32 -3 -8 -1 -15 5
-15 6 0 8 -9 4 -21 -5 -14 -3 -19 3 -15 6 3 17 -3 26 -15 9 -13 19 -18 27 -14
8 5 10 4 5 -3 -7 -11 7 -15 57 -15 9 0 17 -4 17 -10 0 -7 4 -7 12 1 7 7 18 12
26 12 23 0 46 30 34 42 -8 8 -13 7 -18 -5 -3 -9 -10 -15 -14 -12 -5 3 -12 1
-15 -5 -5 -8 -12 -7 -23 2 -12 10 -14 10 -8 1 13 -23 -11 -13 -45 18 -19 17
-28 28 -21 24 6 -3 12 -2 12 3 0 6 -8 13 -17 16 -15 6 -15 8 -3 16 11 7 12 10
2 10 -11 0 -11 2 0 13 9 9 36 14 76 13 34 -1 62 3 62 7 0 5 4 6 9 3 5 -4 16
-3 25 0 12 4 13 11 6 24 -5 9 -7 20 -3 23 3 3 -1 13 -10 21 -8 8 -18 12 -22 8
-4 -4 -6 -2 -5 3 8 39 -44 77 -69 52 -8 -8 -11 -7 -11 1 0 7 -4 12 -10 12 -5
0 -10 -4 -10 -10z m65 -69 c4 -14 12 -30 18 -34 8 -6 6 -7 -5 -3 -10 3 -18 0
-18 -6 0 -6 -11 -8 -30 -4 -19 3 -30 1 -30 -5 0 -8 -5 -7 -15 1 -8 7 -12 16
-9 21 3 5 0 9 -7 9 -8 0 -9 3 0 13 6 8 8 17 4 21 -4 4 0 4 10 0 10 -3 17 -1
17 5 0 6 13 10 29 9 23 -2 31 -8 36 -27z"/>
<path d="M4610 2633 c0 -7 -5 -13 -10 -13 -6 0 -23 -12 -39 -26 -20 -18 -27
-31 -23 -46 3 -12 1 -19 -4 -16 -5 4 -7 -13 -5 -38 1 -24 7 -44 12 -44 5 0 8
-3 7 -7 -4 -13 34 -63 43 -57 5 3 9 1 9 -4 0 -12 56 -33 64 -24 4 3 19 6 35 7
31 1 61 25 61 48 0 8 6 20 14 26 17 14 26 91 11 91 -5 0 -3 5 5 10 11 7 11 10
2 10 -7 0 -11 4 -8 9 3 5 -1 12 -10 15 -8 3 -14 9 -11 13 2 5 -9 21 -25 38
-15 16 -28 24 -28 18 0 -9 -7 -10 -25 -3 -34 13 -75 9 -75 -7z m105 -49 c14
-20 18 -142 6 -163 -9 -14 -69 -23 -76 -11 -3 5 -12 7 -20 3 -10 -3 -15 2 -15
17 0 11 -3 19 -8 17 -4 -3 -7 19 -7 49 0 30 3 54 8 54 4 0 6 3 6 8 -4 24 3 41
19 44 35 8 73 0 87 -18z"/>
<path d="M4883 2620 c-9 -16 -20 -30 -24 -30 -20 0 -36 -124 -18 -136 8 -4 7
-9 -2 -15 -11 -7 -10 -9 3 -9 9 0 20 -9 23 -20 4 -11 11 -18 16 -15 5 4 9 -1
9 -10 0 -9 5 -13 10 -10 6 3 10 2 10 -4 0 -6 7 -8 15 -5 8 4 15 1 15 -6 0 -6
5 -8 13 -3 6 4 22 6 34 5 11 -2 24 2 28 8 3 5 10 8 15 5 13 -8 63 63 57 80 -4
8 -2 17 3 20 6 4 10 11 10 16 0 6 -5 7 -11 3 -8 -4 -8 -1 -1 12 10 20 8 52 -4
62 -4 4 -4 -1 -1 -11 4 -11 3 -16 -3 -12 -6 3 -10 13 -10 21 0 8 -4 14 -9 14
-5 0 -13 10 -17 22 -11 35 -34 47 -91 48 -47 0 -53 -3 -70 -30z m91 -17 c4 -5
12 -8 17 -8 5 0 9 -4 8 -9 0 -5 5 -12 12 -16 16 -11 20 -81 6 -99 -7 -9 -8
-12 -1 -8 6 3 11 0 11 -8 0 -8 -4 -12 -9 -9 -4 3 -8 -4 -8 -15 0 -17 -7 -20
-40 -19 -34 0 -43 5 -54 27 -10 21 -13 77 -7 122 2 9 41 49 50 49 4 0 11 -3
15 -7z"/>
<path d="M6265 2641 c-6 -5 -19 -11 -30 -14 -20 -5 -20 -5 1 -12 16 -5 20 -14
18 -46 -1 -21 2 -37 7 -34 9 6 5 -18 -7 -49 -6 -15 -4 -17 7 -11 11 7 12 6 3
-6 -5 -8 -9 -25 -8 -39 1 -15 -6 -30 -17 -38 -26 -18 -13 -35 21 -27 16 4 31
2 35 -5 3 -5 12 -7 18 -3 7 4 17 8 22 9 36 4 37 7 10 19 -16 8 -26 14 -21 15
5 0 3 7 -4 15 -10 12 -10 15 1 15 11 0 11 2 -1 10 -12 8 -12 10 -1 10 11 0 11
3 1 15 -10 12 -10 15 1 15 11 0 11 2 -1 10 -12 8 -12 10 -1 10 11 0 11 3 1 15
-9 11 -9 15 -1 15 7 0 9 5 6 10 -9 15 20 56 44 63 12 3 19 2 17 -2 -8 -12 10
-31 33 -36 19 -3 21 -2 11 10 -10 12 -8 13 9 10 12 -2 21 -3 21 -1 0 11 -52
60 -65 62 -9 1 -14 0 -11 -4 4 -3 -8 -12 -25 -19 -36 -15 -61 -17 -39 -3 12 8
11 10 -5 10 -12 0 -26 5 -31 10 -6 6 -14 6 -19 1z m-15 -261 c0 -5 -5 -10 -11
-10 -5 0 -7 5 -4 10 3 6 8 10 11 10 2 0 4 -4 4 -10z"/>
<path d="M6884 2643 c5 -9 -2 -13 -23 -13 -17 0 -31 -5 -31 -11 0 -5 -5 -7
-12 -3 -7 4 -8 3 -4 -5 4 -6 0 -14 -9 -17 -13 -6 -14 -8 -3 -15 7 -5 8 -9 2
-9 -13 0 -12 -45 0 -57 5 -5 6 -2 1 6 -5 9 -4 12 3 7 7 -4 12 -14 12 -22 0 -8
3 -13 8 -13 20 3 33 -2 27 -11 -4 -6 -3 -10 2 -9 4 1 21 -3 36 -9 16 -7 32
-12 36 -12 5 0 14 -7 21 -15 9 -11 9 -15 1 -15 -7 0 -9 -4 -6 -10 3 -5 0 -11
-7 -12 -7 0 -17 -2 -23 -2 -5 -1 -15 -5 -22 -9 -6 -4 -18 0 -26 8 -9 8 -21 15
-27 15 -6 0 -8 5 -5 10 3 6 -1 10 -9 10 -9 0 -16 5 -16 10 0 6 -6 5 -14 -2
-11 -10 -11 -16 -2 -27 9 -12 8 -13 -3 -6 -11 6 -13 4 -8 -9 4 -10 7 -20 7
-22 0 -2 7 -4 16 -4 8 0 12 5 9 10 -3 6 -1 10 4 10 6 0 11 -4 11 -8 0 -5 6 -9
13 -9 6 -1 27 -3 45 -6 19 -3 32 0 32 7 0 6 5 4 10 -4 8 -12 10 -12 10 -1 0 8
3 12 6 8 8 -7 34 17 34 32 0 6 4 11 9 11 13 0 6 51 -9 60 -6 4 -11 10 -11 14
3 23 0 30 -9 16 -7 -12 -10 -12 -10 -1 0 8 -6 11 -16 7 -8 -3 -13 -2 -11 2 3
4 -5 16 -16 27 -11 11 -16 14 -12 6 5 -10 -2 -8 -23 4 -26 16 -29 21 -19 34
10 12 9 13 -3 6 -12 -6 -13 -5 -3 5 14 15 76 16 81 1 2 -6 10 -11 18 -11 9 0
12 -4 9 -10 -3 -5 -1 -10 4 -10 6 0 14 -1 18 -2 4 -2 9 12 10 31 2 28 1 31
-11 22 -11 -9 -16 -9 -22 0 -5 8 -3 9 6 4 9 -5 11 -4 6 4 -6 9 -11 9 -22 0
-11 -9 -14 -9 -14 0 0 7 -5 9 -10 6 -6 -4 -18 -1 -27 7 -12 9 -15 9 -9 1z"/>
<path d="M7674 2636 c-10 -6 -21 -12 -23 -14 -3 -1 4 -9 15 -17 12 -9 14 -14
6 -15 -7 0 -10 -5 -7 -10 4 -6 12 -7 18 -4 8 5 8 3 0 -7 -7 -7 -13 -23 -13
-36 0 -13 6 -23 13 -24 6 0 3 -4 -8 -9 -11 -5 -14 -9 -7 -9 7 -1 10 -6 7 -11
-4 -6 -1 -18 6 -26 10 -12 9 -13 -5 -8 -12 5 -15 2 -10 -10 3 -9 11 -13 18 -9
6 4 5 -1 -3 -11 -12 -15 -12 -17 0 -14 8 2 13 -3 11 -10 -1 -8 2 -11 7 -8 5 4
11 0 13 -6 6 -17 108 -14 118 2 5 8 9 8 11 2 5 -14 89 -20 87 -7 0 6 -5 20
-11 33 -8 18 -8 25 4 33 13 8 6 13 -13 10 -5 0 -8 4 -8 9 0 6 4 10 8 10 11 0
9 31 -3 49 -6 11 -4 13 8 8 16 -6 15 -4 0 20 -10 15 -13 24 -7 20 24 -14 9 53
-15 70 -14 9 -21 11 -17 5 8 -14 -35 -12 -45 1 -3 5 -9 1 -12 -8 -4 -9 -3 -13
3 -10 6 3 10 1 10 -5 0 -6 5 -8 12 -4 7 5 9 2 6 -8 -4 -8 -2 -21 2 -28 6 -9 2
-19 -8 -28 -9 -7 -12 -11 -7 -8 6 2 17 -4 24 -16 7 -11 8 -17 3 -14 -14 9 -22
-20 -9 -33 8 -8 8 -11 -1 -11 -6 0 -9 -7 -6 -15 4 -8 1 -21 -5 -29 -6 -7 -8
-15 -6 -18 3 -3 -12 -10 -35 -16 -25 -6 -40 -6 -40 0 0 5 -4 7 -9 4 -5 -3 -8
2 -7 12 0 10 -5 16 -13 14 -11 -2 -12 0 -3 10 6 7 9 32 7 56 -2 23 1 42 6 42
6 0 6 7 1 18 -4 9 -8 31 -8 48 1 37 -29 57 -60 40z"/>
<path d="M7103 2626 c-34 -18 -47 -38 -48 -72 0 -24 5 -36 16 -39 10 -3 20
-13 23 -21 3 -8 10 -12 16 -9 5 3 10 1 10 -4 0 -6 11 -11 24 -11 13 0 26 -5
28 -10 2 -6 13 -12 24 -12 23 -2 26 -25 7 -45 -24 -26 -107 -5 -116 28 -6 22
-37 20 -37 -3 0 -13 -4 -17 -12 -12 -9 5 -9 2 1 -9 7 -9 10 -17 6 -17 -4 0 -2
-7 5 -15 11 -14 15 -14 38 1 13 9 21 11 18 5 -5 -7 3 -11 21 -12 15 0 38 -2
51 -3 13 -2 27 4 32 13 8 13 9 13 10 2 0 -11 4 -9 14 4 8 11 12 23 10 27 -3 5
3 8 13 8 10 0 14 3 8 8 -6 4 -10 19 -10 35 1 15 -3 27 -7 27 -7 0 -35 21 -63
48 -8 6 -20 12 -27 12 -8 0 -20 6 -27 13 -11 10 -13 10 -7 0 4 -7 3 -13 -2
-13 -5 0 -12 11 -14 24 -5 27 7 36 49 36 21 0 56 -21 50 -31 -1 -2 0 -3 2 -2
2 2 11 -3 19 -10 13 -9 14 -9 8 1 -4 6 -2 12 3 12 6 0 11 7 11 15 0 8 -4 15
-10 15 -5 0 -10 7 -10 16 0 8 -5 12 -10 9 -6 -4 -7 -12 -3 -18 4 -8 1 -8 -9 1
-20 16 -82 21 -105 8z"/>
<path d="M5465 2520 c3 -5 8 -10 11 -10 2 0 4 5 4 10 0 6 -5 10 -11 10 -5 0
-7 -4 -4 -10z"/>
<path d="M7581 2484 c0 -11 3 -14 6 -6 3 7 2 16 -1 19 -3 4 -6 -2 -5 -13z"/>
<path d="M5410 2406 c0 -2 7 -7 16 -10 8 -3 12 -2 9 4 -6 10 -25 14 -25 6z"/>
</g>
</svg>
